<svg width="24" height="24" viewBox="0 0 24 24" fill="none" xmlns="http://www.w3.org/2000/svg">
<path d="M3 12.0002C3 7.02968 7.02944 3.00024 12 3.00024C16.9706 3.00024 21 7.02968 21 12.0002C21 16.9708 16.9706 21.0002 12 21.0002C10.5585 21.0002 9.19862 20.6622 7.99316 20.0618C7.44876 19.7906 6.79133 19.6826 6.14062 19.8567L3.91504 20.4524C3.69204 20.5121 3.48818 20.3082 3.54785 20.0852L4.14355 17.8596C4.31766 17.2089 4.2096 16.5515 3.93848 16.0071C3.33806 14.8016 3 13.4418 3 12.0002ZM1 12.0002C1 13.7581 1.41316 15.4225 2.14844 16.8987C2.23209 17.0667 2.2425 17.2238 2.21094 17.342L1.61523 19.5686C1.15801 21.2781 2.72214 22.8422 4.43164 22.385L6.6582 21.7893C6.77648 21.7577 6.93353 21.7682 7.10156 21.8518C8.57778 22.5871 10.2422 23.0002 12 23.0002C18.0751 23.0002 23 18.0754 23 12.0002C23 5.92511 18.0751 1.00024 12 1.00024C5.92487 1.00024 1 5.92511 1 12.0002Z" fill="#2E3138"/>
<path d="M12.8072 9.72979C12.4036 9.72979 12.0677 9.78545 11.7881 9.87951V11.1678C11.9445 11.1286 12.1175 11.1077 12.3105 11.1077C13.4266 11.1077 13.949 12.0208 13.949 13.302C13.949 14.7482 13.3565 15.7016 12.2834 15.7016C11.3321 15.7016 10.698 15.2906 10.698 13.8265V6.93446H8.99253V14.5853C8.99253 15.3621 8.99253 16.139 8.97786 16.9024H10.6155C10.6457 16.7258 10.6853 16.425 10.6853 16.1513C11.0306 16.7113 11.5386 17.0655 12.6118 17.0655C14.6373 17.0655 15.6961 15.3207 15.6961 13.2608C15.6961 11.2009 14.6772 9.72979 12.8072 9.72979Z" fill="#2E3138"/>
</svg>
