<svg width="409" height="85" viewBox="0 0 409 85" xmlns="http://www.w3.org/2000/svg">
<path d="M118.197 66.2935C118.197 71.9696 118.197 78.6716 118.308 83.3272H104.455C104.227 81.7385 104.11 78.4454 103.999 75.9467C100.679 81.9647 95.2956 84.6896 87.2817 84.6896C75.9478 84.6896 67.706 78.2193 67.706 63.1108V24.9506H81.904V60.27C81.904 67.0823 83.9616 72.99 91.981 72.99C100.568 72.99 104.005 68.3345 104.005 55.8406V24.9506H118.202V66.2935H118.197ZM144.758 57.0927C144.758 65.8357 149.223 73.4479 158.038 73.4479C165.596 73.4479 167.998 70.039 169.605 66.2935H183.92C181.746 73.5637 175.334 84.6896 157.588 84.6896C138.579 84.6896 130.448 70.1548 130.448 54.936C130.448 36.8819 139.725 23.5937 158.272 23.5937C178.081 23.5937 184.721 38.2444 184.721 52.1007C184.721 54.0313 184.721 55.3938 184.487 57.0983H144.758V57.0927ZM170.406 48.1236C170.29 40.2853 166.853 33.9253 158.155 33.9253C149.457 33.9253 145.903 39.8275 145.102 48.1236H170.406ZM196.85 39.6068C196.85 34.6093 196.85 29.3856 196.733 24.9562H210.475C210.82 26.5448 211.048 31.3162 211.048 33.131C213.111 29.0436 217.922 23.5937 228.566 23.5937C240.134 23.5937 248.148 31.09 248.148 46.0827V83.3327H233.95V47.6713C233.95 40.4011 231.314 35.1774 223.528 35.1774C215.169 35.1774 211.048 40.517 211.048 51.3064V83.3327H196.85V39.6068ZM331.267 24.9506H345.465V83.3272H331.267V24.9506ZM356.798 0.304861L344.436 16.2077H331.723L339.736 0.304861H356.798ZM407.64 69.0185C407.64 74.4684 408.101 81.8489 408.441 83.3272H394.815C394.354 82.0805 394.015 79.1239 393.898 76.9671C391.835 80.4864 387.602 84.6896 376.836 84.6896C362.755 84.6896 356.798 75.4888 356.798 66.5197C356.798 53.3473 367.448 47.2135 384.738 47.2135H393.67V43.2364C393.67 38.6912 392.179 33.9253 383.365 33.9253C375.579 33.9253 373.977 37.4445 373.176 41.7636H359.551C360.352 32.2208 366.425 23.4778 383.943 23.5937C399.287 23.704 407.645 29.7276 407.645 43.3522V69.0185H407.64ZM393.787 56.0723H386.118C375.696 56.0723 371.119 59.1392 371.119 65.7254C371.119 70.4968 374.322 74.358 380.623 74.358C392.302 74.358 393.792 66.4094 393.792 57.7767V56.0723H393.787ZM31.997 23.5882C28.6435 23.5882 25.8517 24.0515 23.5216 24.8348V35.5691C24.8229 35.2381 26.2633 35.0671 27.8705 35.0671C37.1467 35.0671 41.4956 42.6793 41.4956 53.3473C41.4956 65.3944 36.5683 73.3376 27.6425 73.3376C19.7232 73.3376 14.4511 69.9121 14.4511 57.7161V0.304861H0.269809V64.032C0.269809 70.5023 0.269809 76.9782 0.147461 83.3327H13.7726C14.0173 81.8654 14.3454 79.3611 14.3454 77.083C17.2151 81.744 21.4472 84.6951 30.3731 84.6951C47.2182 84.6951 56.0217 70.1603 56.0217 53.0053C56.0217 35.8504 47.5463 23.5937 31.9858 23.5937L31.997 23.5882ZM315.806 64.032V0.304861H301.625V57.7161C301.625 69.9121 296.353 73.3376 288.434 73.3376C279.508 73.3376 274.58 65.3944 274.58 53.3473C274.58 42.6793 278.929 35.0671 288.206 35.0671C289.813 35.0671 291.253 35.2436 292.554 35.5691V24.8348C290.23 24.0515 287.438 23.5882 284.079 23.5882C268.519 23.5882 260.043 36.3082 260.043 52.9998C260.043 69.6914 268.847 84.6896 285.697 84.6896C294.623 84.6896 298.855 81.7385 301.725 77.0774C301.725 79.3556 302.053 81.8599 302.298 83.3272H315.923C315.801 76.9726 315.801 70.5023 315.801 64.0264L315.806 64.032Z" fill="#ffffff"/>
</svg>
