<svg width="67" height="45" viewBox="0 0 67 45" fill="none" xmlns="http://www.w3.org/2000/svg">
<g clip-path="url(#clip0_318_5278)">
<path fill-rule="evenodd" clip-rule="evenodd" d="M60.9583 1.38542H5.54167C3.24623 1.38542 1.38542 3.24623 1.38542 5.54167V38.7917C1.38542 41.0871 3.24623 42.9479 5.54167 42.9479H60.9583C63.2538 42.9479 65.1146 41.0871 65.1146 38.7917V5.54167C65.1146 3.24623 63.2538 1.38542 60.9583 1.38542ZM5.54167 0C2.48109 0 0 2.48109 0 5.54167V38.7917C0 41.8522 2.48109 44.3333 5.54167 44.3333H60.9583C64.0189 44.3333 66.5 41.8522 66.5 38.7917V5.54167C66.5 2.48109 64.0189 0 60.9583 0H5.54167Z" fill="white"/>
<path fill-rule="evenodd" clip-rule="evenodd" d="M11.0215 24.5457C10.9882 24.5745 10.9469 24.5924 10.9031 24.5968C10.8593 24.6012 10.8152 24.592 10.7768 24.5704C10.4332 24.2845 10.3709 24.1526 10.1839 23.8804C9.61488 24.4595 9.21261 24.6327 8.47678 24.6327C7.60534 24.6327 6.92725 24.0948 6.92725 23.019C6.92725 22.1787 7.38542 21.6079 8.02686 21.3275C8.58858 21.081 9.37297 21.0361 9.97318 20.9683V20.8345C9.97318 20.588 9.99242 20.2966 9.84764 20.0831C9.72118 19.8925 9.4811 19.8146 9.26667 19.8146C8.87173 19.8146 8.51985 20.0171 8.43372 20.4359C8.42841 20.4834 8.40757 20.5278 8.37443 20.5623C8.3413 20.5967 8.29772 20.6193 8.25045 20.6265L7.2553 20.5174C7.23072 20.5139 7.20712 20.5054 7.18592 20.4925C7.16473 20.4796 7.14637 20.4625 7.13198 20.4423C7.11758 20.4221 7.10744 20.3991 7.10218 20.3749C7.09691 20.3506 7.09663 20.3255 7.10135 20.3012C7.33135 19.0843 8.43097 18.7168 9.41604 18.7168C9.92003 18.7168 10.578 18.8506 10.9738 19.2318C11.4769 19.7028 11.432 20.3314 11.432 21.0141V22.6259C11.432 23.1116 11.6336 23.3242 11.8233 23.5853C11.8893 23.677 11.9039 23.7915 11.8233 23.8602C11.6116 24.0371 11.2359 24.3633 11.0297 24.5475L11.0215 24.5457ZM9.97776 22.0221C9.97776 22.4252 9.98692 22.7615 9.78441 23.1217C9.61947 23.4131 9.35831 23.5927 9.06691 23.5927C8.67013 23.5927 8.4383 23.2903 8.4383 22.8413C8.4383 21.9597 9.2291 21.7994 9.97776 21.7994V22.0239V22.0221Z" fill="white"/>
<path fill-rule="evenodd" clip-rule="evenodd" d="M13.8565 24.5056H12.8219C12.7755 24.5032 12.7315 24.4842 12.6978 24.4521C12.6642 24.4199 12.6432 24.3768 12.6387 24.3305V19.0157C12.6403 18.9645 12.662 18.916 12.699 18.8806C12.736 18.8451 12.7854 18.8256 12.8366 18.8261H13.8015C13.8493 18.8287 13.8944 18.8489 13.9282 18.8827C13.962 18.9165 13.9821 18.9616 13.9848 19.0093V19.703H14.004C14.2551 19.0313 14.7289 18.7189 15.3666 18.7189C16.0044 18.7189 16.4195 19.0313 16.71 19.703C16.8052 19.4491 16.9663 19.2252 17.1767 19.0541C17.387 18.883 17.6391 18.7709 17.9071 18.7294C18.1751 18.6879 18.4492 18.7185 18.7015 18.8179C18.9538 18.9173 19.1751 19.0821 19.3426 19.2952C19.6716 19.7424 19.6038 20.3948 19.6038 20.9611V24.3141C19.6033 24.3398 19.5978 24.3651 19.5875 24.3887C19.5772 24.4122 19.5623 24.4335 19.5437 24.4513C19.5252 24.4691 19.5033 24.4831 19.4793 24.4924C19.4553 24.5017 19.4298 24.5062 19.404 24.5056H18.3695C18.3205 24.503 18.2742 24.4819 18.2402 24.4465C18.2061 24.4111 18.1869 24.3641 18.1862 24.315V21.4981C18.1862 21.2745 18.2055 20.7156 18.1569 20.503C18.0799 20.1456 17.8481 20.0448 17.5484 20.0448C17.4141 20.0489 17.2839 20.0923 17.1739 20.1697C17.064 20.2471 16.9791 20.355 16.9299 20.4801C16.8236 20.7495 16.8328 21.1957 16.8328 21.4981V24.3141C16.8323 24.3397 16.8268 24.365 16.8165 24.3885C16.8063 24.412 16.7915 24.4332 16.773 24.451C16.7546 24.4688 16.7328 24.4828 16.7089 24.4921C16.685 24.5015 16.6596 24.5061 16.6339 24.5056H15.5966C15.5477 24.5028 15.5016 24.4816 15.4676 24.4463C15.4336 24.4109 15.4142 24.364 15.4134 24.315V21.4981C15.4134 20.9052 15.505 20.032 14.7719 20.032C14.0388 20.032 14.0572 20.8814 14.0572 21.4981V24.3141C14.0567 24.3398 14.0511 24.3651 14.0408 24.3887C14.0305 24.4122 14.0157 24.4335 13.9971 24.4513C13.9785 24.4691 13.9566 24.4831 13.9327 24.4924C13.9087 24.5017 13.8831 24.5062 13.8574 24.5056" fill="white"/>
<path fill-rule="evenodd" clip-rule="evenodd" d="M25.3904 23.5819C25.2007 23.3208 24.9991 23.1082 24.9991 22.6234V21.0107C24.9991 20.3271 25.0477 19.6994 24.541 19.2284C24.1442 18.8472 23.4862 18.7134 22.9832 18.7134C21.9981 18.7134 20.8985 19.0799 20.6676 20.2977C20.6627 20.3222 20.6629 20.3475 20.6682 20.3719C20.6734 20.3963 20.6836 20.4194 20.6981 20.4397C20.7126 20.4601 20.7311 20.4772 20.7525 20.4902C20.7739 20.5031 20.7977 20.5115 20.8224 20.5149L21.8258 20.623C21.873 20.6157 21.9165 20.5931 21.9496 20.5587C21.9828 20.5242 22.0036 20.4799 22.0091 20.4324C22.0962 20.0137 22.4462 19.8112 22.8411 19.8112C23.0546 19.8112 23.2993 19.89 23.4221 20.0806C23.5678 20.2932 23.5486 20.5846 23.5486 20.8311V20.9621C22.9484 21.029 22.163 21.0739 21.6022 21.3204C20.9535 21.6008 20.498 22.1717 20.498 23.0129C20.498 24.0877 21.1761 24.6256 22.0476 24.6256C22.7807 24.6256 23.1857 24.4524 23.7538 23.8733C23.9426 24.1482 24.004 24.2774 24.3476 24.5633C24.386 24.5848 24.4299 24.594 24.4737 24.5898C24.5174 24.5855 24.5588 24.568 24.5923 24.5395C24.7985 24.3562 25.1742 24.0291 25.3858 23.8522C25.4747 23.789 25.4601 23.6772 25.3904 23.5819ZM23.3561 23.1173C23.1921 23.4078 22.93 23.5874 22.6395 23.5874C22.2428 23.5874 22.0109 23.285 22.0109 22.8369C22.0109 21.9545 22.8017 21.795 23.5504 21.795V22.0186C23.5504 22.4227 23.5577 22.7581 23.3561 23.1173Z" fill="white"/>
<path fill-rule="evenodd" clip-rule="evenodd" d="M26.2664 19.7571V18.9975C26.2652 18.9718 26.2694 18.9463 26.2787 18.9224C26.2881 18.8985 26.3023 18.8768 26.3205 18.8587C26.3387 18.8407 26.3606 18.8266 26.3845 18.8176C26.4085 18.8085 26.4342 18.8045 26.4598 18.806H29.8622C29.8878 18.8051 29.9133 18.8094 29.9372 18.8187C29.961 18.8279 29.9828 18.8419 30.0011 18.8598C30.0194 18.8777 30.034 18.8991 30.0438 18.9228C30.0536 18.9465 30.0585 18.9719 30.0583 18.9975V19.649C30.0583 19.758 29.9666 19.901 29.8026 20.1264L28.0395 22.6427C28.6938 22.6271 29.3857 22.7252 29.9804 23.0596C30.0343 23.0884 30.0797 23.1309 30.1119 23.1829C30.1441 23.2349 30.1619 23.2945 30.1636 23.3556V24.1693C30.1636 24.2811 30.0418 24.4103 29.9126 24.3434C29.3563 24.0575 28.7398 23.9089 28.1144 23.9101C27.489 23.9112 26.8729 24.062 26.3177 24.3498C26.1995 24.4131 26.0758 24.2857 26.0758 24.1739V23.3996C26.065 23.2171 26.1091 23.0355 26.2023 22.8782L28.2448 19.9459H26.4634C26.4378 19.9469 26.4122 19.9426 26.3882 19.9334C26.3642 19.9242 26.3423 19.9103 26.3239 19.8924C26.3055 19.8744 26.2909 19.853 26.281 19.8293C26.2711 19.8055 26.2662 19.7801 26.2664 19.7544" fill="white"/>
<path fill-rule="evenodd" clip-rule="evenodd" d="M32.9962 19.7954C32.2329 19.7954 32.1843 20.8345 32.1843 21.4833C32.1843 22.1321 32.1752 23.5176 32.9861 23.5176C33.7971 23.5176 33.8274 22.3997 33.8274 21.7179C33.8274 21.2707 33.8081 20.7337 33.6725 20.3095C33.5561 19.9429 33.3243 19.7954 32.9962 19.7954ZM32.9861 18.7104C34.5229 18.7104 35.354 20.03 35.354 21.7069C35.354 23.3279 34.4376 24.6135 32.9861 24.6135C31.4788 24.6135 30.6577 23.294 30.6577 21.651C30.6577 20.008 31.4888 18.7104 32.9861 18.7104Z" fill="white"/>
<path fill-rule="evenodd" clip-rule="evenodd" d="M37.3572 24.4944H36.3254C36.2763 24.4919 36.2301 24.4707 36.1961 24.4353C36.162 24.3999 36.1427 24.3529 36.1421 24.3038V18.989C36.1474 18.9404 36.1707 18.8954 36.2076 18.8632C36.2444 18.8309 36.292 18.8137 36.3409 18.8149H37.3013C37.3438 18.8163 37.3848 18.8315 37.4179 18.8583C37.4509 18.8851 37.4744 18.922 37.4845 18.9634V19.7762H37.5047C37.7943 19.0495 38.2002 18.7031 38.9149 18.7031C39.3786 18.7031 39.8313 18.8708 40.1236 19.329C40.3939 19.7542 40.3939 20.4698 40.3939 20.9839V24.3276C40.3866 24.3748 40.3624 24.4177 40.3258 24.4484C40.2893 24.4791 40.2428 24.4954 40.1951 24.4944H39.1541C39.1089 24.4925 39.0657 24.4747 39.0323 24.4443C38.9988 24.4138 38.977 24.3725 38.9708 24.3276V21.4421C38.9708 20.8611 39.0387 20.0107 38.323 20.0107C38.1929 20.0168 38.0672 20.06 37.961 20.1354C37.8547 20.2108 37.7724 20.3151 37.7237 20.4359C37.5789 20.7603 37.5597 21.0847 37.5597 21.4439V24.3038C37.5578 24.3557 37.5356 24.4047 37.4979 24.4404C37.4602 24.476 37.41 24.4954 37.3581 24.4944" fill="white"/>
<path fill-rule="evenodd" clip-rule="evenodd" d="M45.7801 19.6221C45.254 19.6263 44.7436 19.8016 44.3259 20.1215V23.1455C44.789 23.4937 45.2664 23.6675 45.7581 23.6669C46.7564 23.6669 47.2555 22.9949 47.2555 21.6509C47.2555 20.3069 46.7637 19.6304 45.7801 19.6212V19.6221ZM44.2498 19.481C44.5099 19.2517 44.8071 19.0682 45.1286 18.9385C45.4324 18.8175 45.7564 18.7553 46.0835 18.7553C46.4085 18.7492 46.7309 18.8143 47.0282 18.9459C47.3083 19.0743 47.5537 19.2678 47.7439 19.5103C47.9509 19.779 48.104 20.0852 48.1947 20.412C48.3046 20.7994 48.3577 21.2007 48.3523 21.6033C48.3573 22.0145 48.3005 22.4241 48.1837 22.8183C48.086 23.1529 47.9258 23.466 47.7118 23.7411C47.513 23.9912 47.2606 24.1935 46.9732 24.3331C46.6712 24.4732 46.3412 24.5425 46.0083 24.5356C45.3862 24.5459 44.784 24.3161 44.3268 23.8941V26.4379C44.3311 26.4674 44.3285 26.4975 44.3191 26.5259C44.3097 26.5542 44.2938 26.5799 44.2727 26.601C44.2516 26.6221 44.2259 26.638 44.1976 26.6474C44.1693 26.6567 44.1392 26.6594 44.1096 26.6551H43.4682C43.4387 26.6594 43.4086 26.6567 43.3803 26.6474C43.3519 26.638 43.3262 26.6221 43.3051 26.601C43.284 26.5799 43.2681 26.5542 43.2588 26.5259C43.2494 26.4975 43.2467 26.4674 43.251 26.4379V19.1337C43.2469 19.1042 43.2497 19.0742 43.2592 19.046C43.2686 19.0178 43.2845 18.9921 43.3055 18.9711C43.3266 18.95 43.3522 18.9341 43.3805 18.9247C43.4087 18.9152 43.4387 18.9124 43.4682 18.9165H43.9456C43.9764 18.9137 44.0075 18.9171 44.037 18.9265C44.0665 18.936 44.0938 18.9513 44.1171 18.9716C44.1405 18.9919 44.1595 19.0168 44.1731 19.0446C44.1866 19.0725 44.1943 19.1028 44.1958 19.1337L44.2498 19.481Z" fill="white"/>
<path fill-rule="evenodd" clip-rule="evenodd" d="M51.0589 23.7494C51.3147 23.7462 51.568 23.6988 51.8076 23.6092C52.0765 23.5103 52.3289 23.3713 52.5562 23.1969V22.089C52.3682 22.0448 52.1779 22.0105 51.9863 21.9864C51.7939 21.9612 51.6002 21.9483 51.4062 21.9479C50.5876 21.9479 50.1786 22.2628 50.1792 22.8927C50.1792 23.1676 50.2553 23.3792 50.4074 23.5277C50.5595 23.6761 50.7767 23.7501 51.0589 23.7494ZM49.7889 19.8623L49.7073 19.8898C49.6779 19.9003 49.6469 19.9058 49.6157 19.9063C49.5241 19.9063 49.4746 19.8412 49.4746 19.7102V19.4197C49.4676 19.3463 49.483 19.2726 49.5186 19.208C49.5654 19.1555 49.6251 19.1161 49.6918 19.0935C49.9673 18.9815 50.2548 18.9013 50.5485 18.8543C50.8851 18.7934 51.2264 18.7627 51.5684 18.7627C52.2557 18.7627 52.7621 18.9035 53.0877 19.1851C53.4133 19.4668 53.5764 19.9045 53.577 20.4983V24.2058C53.5812 24.2353 53.5784 24.2653 53.5689 24.2935C53.5595 24.3217 53.5436 24.3474 53.5225 24.3684C53.5015 24.3895 53.4758 24.4054 53.4476 24.4148C53.4194 24.4243 53.3894 24.4271 53.3599 24.423H52.8925C52.8632 24.4258 52.8336 24.4227 52.8055 24.4138C52.7774 24.4049 52.7514 24.3903 52.7291 24.371C52.7068 24.3518 52.6887 24.3281 52.6758 24.3016C52.663 24.2751 52.6556 24.2462 52.6543 24.2168L52.5993 23.8585C52.3437 24.0799 52.0521 24.256 51.737 24.379C51.4383 24.4987 51.1196 24.5609 50.7978 24.5622C50.2773 24.5622 49.8649 24.4156 49.5607 24.1224C49.2565 23.8292 49.1038 23.4367 49.1025 22.9449C49.1025 22.4171 49.2907 21.9956 49.667 21.6803C50.0433 21.3651 50.5498 21.2078 51.1863 21.2084C51.6477 21.2155 52.1066 21.277 52.5535 21.3917V20.6788C52.5535 20.2878 52.4667 20.0129 52.2933 19.8541C52.1198 19.6952 51.8158 19.6155 51.3815 19.6149C50.8415 19.62 50.305 19.7033 49.7889 19.8623Z" fill="white"/>
<path fill-rule="evenodd" clip-rule="evenodd" d="M57.109 25.3843C56.9129 25.8834 56.6866 26.2417 56.43 26.4592C56.1734 26.6767 55.8374 26.7851 55.422 26.7845C55.2134 26.7873 55.0053 26.7617 54.8035 26.7084C54.7357 26.694 54.6745 26.6576 54.6294 26.6049C54.5882 26.5386 54.5693 26.4609 54.5753 26.3831V26.1009C54.5753 25.9635 54.6294 25.8947 54.7384 25.8947C54.7933 25.8972 54.8479 25.9043 54.9015 25.9158C54.9981 25.9325 55.0959 25.9398 55.1939 25.9378C55.4242 25.9523 55.6521 25.883 55.8353 25.7426C55.9874 25.6125 56.1249 25.3736 56.2477 25.026L56.4538 24.4762L54.3627 19.3071C54.3234 19.2248 54.298 19.1366 54.2876 19.046C54.2876 18.9598 54.338 18.9159 54.4388 18.9159H55.0903C55.1738 18.9079 55.2576 18.9268 55.3295 18.9699C55.3908 19.0384 55.435 19.1203 55.4587 19.2091L56.9789 23.4197L58.4451 19.2091C58.4687 19.1203 58.513 19.0384 58.5743 18.9699C58.6462 18.9268 58.73 18.9079 58.8134 18.9159H59.421C59.5227 18.9159 59.5731 18.9598 59.5731 19.046C59.5622 19.1366 59.5365 19.2248 59.497 19.3071L57.109 25.3843Z" fill="white"/>
<path fill-rule="evenodd" clip-rule="evenodd" d="M27.6702 26.5892C25.7266 28.0233 22.9052 28.7884 20.4824 28.7884C17.241 28.8049 14.1104 27.6105 11.7038 25.4392C11.5205 25.2752 11.6836 25.0506 11.9026 25.178C14.4024 26.6323 17.4923 27.5083 20.6867 27.5083C22.9892 27.4957 25.2665 27.0286 27.3879 26.1338C27.716 25.9945 27.9918 26.35 27.6702 26.5919M28.4784 25.6692C28.7276 25.9872 28.2035 27.2994 27.968 27.8849C27.8965 28.0618 28.0495 28.1332 28.2099 27.9994C29.2518 27.1271 29.5212 25.2999 29.3095 25.036C29.0978 24.7721 27.2752 24.5485 26.1628 25.3301C25.9914 25.4502 26.0208 25.616 26.2113 25.5931C26.8372 25.518 28.2319 25.3503 28.4802 25.6692" fill="white"/>
</g>
<defs>
<clipPath id="clip0_318_5278">
<rect width="66.5" height="44.3333" fill="white"/>
</clipPath>
</defs>
</svg>
