<svg width="67" height="45" viewBox="0 0 67 45" fill="none" xmlns="http://www.w3.org/2000/svg">
<g clip-path="url(#clip0_318_5279)">
<path fill-rule="evenodd" clip-rule="evenodd" d="M60.9583 1.38542H5.54167C3.24623 1.38542 1.38542 3.24623 1.38542 5.54167V38.7917C1.38542 41.0871 3.24623 42.9479 5.54167 42.9479H60.9583C63.2538 42.9479 65.1146 41.0871 65.1146 38.7917V5.54167C65.1146 3.24623 63.2538 1.38542 60.9583 1.38542ZM5.54167 0C2.48109 0 0 2.48109 0 5.54167V38.7917C0 41.8522 2.48109 44.3333 5.54167 44.3333H60.9583C64.0189 44.3333 66.5 41.8522 66.5 38.7917V5.54167C66.5 2.48109 64.0189 0 60.9583 0H5.54167Z" fill="white"/>
<path d="M54.6938 26.0807C53.4695 26.0807 52.5152 25.0776 52.5152 23.8595C52.5152 22.6414 53.4695 21.6382 54.6938 21.6382C55.9181 21.6382 56.8724 22.6414 56.8724 23.8595C56.8724 25.0776 55.9181 26.0807 54.6938 26.0807ZM54.0817 28.4274C55.1259 28.4274 56.4583 28.0333 57.1965 26.4927L57.2685 26.5286C56.9444 27.3705 56.9444 27.8721 56.9444 27.9975V28.1945H59.5731V19.5245H56.9444V19.7216C56.9444 19.847 56.9444 20.3485 57.2685 21.1904L57.1965 21.2263C56.4583 19.6857 55.1259 19.2916 54.0817 19.2916C51.579 19.2916 49.8145 21.2621 49.8145 23.8595C49.8145 26.4569 51.579 28.4274 54.0817 28.4274ZM45.2413 19.2916C44.053 19.2916 43.1168 19.7036 42.3605 21.2263L42.2886 21.1904C42.6126 20.3485 42.6126 19.847 42.6126 19.7216V19.5245H39.984V28.1945H42.6847V23.6266C42.6847 22.4265 43.3868 21.6741 44.5211 21.6741C45.6555 21.6741 46.2136 22.319 46.2136 23.6087V28.1945H48.9143V22.6772C48.9143 20.7068 47.3659 19.2916 45.2413 19.2916ZM36.0769 21.2263L36.0049 21.1904C36.329 20.3485 36.329 19.847 36.329 19.7216V19.5245H33.7003V28.1945H36.401L36.419 24.0207C36.419 22.8026 37.0672 22.0682 38.1294 22.0682C38.4175 22.0682 38.6516 22.104 38.9217 22.1757V19.5245C37.7333 19.2737 36.671 19.7216 36.0769 21.2263ZM27.4887 26.0807C26.2644 26.0807 25.3101 25.0776 25.3101 23.8595C25.3101 22.6414 26.2644 21.6382 27.4887 21.6382C28.713 21.6382 29.6672 22.6414 29.6672 23.8595C29.6672 25.0776 28.713 26.0807 27.4887 26.0807ZM26.8765 28.4274C27.9208 28.4274 29.2531 28.0333 29.9913 26.4927L30.0634 26.5286C29.7392 27.3705 29.7392 27.8721 29.7392 27.9975V28.1945H32.368V19.5245H29.7392V19.7216C29.7392 19.847 29.7392 20.3485 30.0634 21.1904L29.9913 21.2263C29.2531 19.6857 27.9208 19.2916 26.8765 19.2916C24.3739 19.2916 22.6094 21.2621 22.6094 23.8595C22.6094 26.4569 24.3739 28.4274 26.8765 28.4274ZM18.8464 28.1945H21.5471V15.6553H18.8464V28.1945ZM16.8658 15.6553H14.1111C14.1111 17.8944 12.7248 19.9007 10.6182 21.3337L9.79 21.907V15.6553H6.92725V28.1945H9.79V21.9786L14.5252 28.1945H18.0182L13.463 22.2473C15.5335 20.7605 16.8838 18.4497 16.8658 15.6553Z" fill="white"/>
</g>
<defs>
<clipPath id="clip0_318_5279">
<rect width="66.5" height="44.3333" fill="white"/>
</clipPath>
</defs>
</svg>
