<svg width="67" height="45" viewBox="0 0 67 45" fill="none" xmlns="http://www.w3.org/2000/svg">
<g clip-path="url(#clip0_318_5277)">
<path fill-rule="evenodd" clip-rule="evenodd" d="M60.9583 1.38542H5.54167C3.24623 1.38542 1.38542 3.24623 1.38542 5.54167V38.7917C1.38542 41.0871 3.24623 42.9479 5.54167 42.9479H60.9583C63.2538 42.9479 65.1146 41.0871 65.1146 38.7917V5.54167C65.1146 3.24623 63.2538 1.38542 60.9583 1.38542ZM5.54167 0C2.48109 0 0 2.48109 0 5.54167V38.7917C0 41.8522 2.48109 44.3333 5.54167 44.3333H60.9583C64.0189 44.3333 66.5 41.8522 66.5 38.7917V5.54167C66.5 2.48109 64.0189 0 60.9583 0H5.54167Z" fill="white"/>
<path d="M32.0232 33.427C32.1309 33.5194 32.2464 33.6117 32.358 33.7041C30.1605 35.1665 27.5244 36.0208 24.6882 36.0208C17.0376 36.0208 10.834 29.8172 10.834 22.1667C10.834 14.5161 17.0376 8.3125 24.6882 8.3125C27.5244 8.3125 30.1605 9.16684 32.358 10.6292C32.2464 10.7216 32.1309 10.8101 32.0232 10.9063C28.7597 13.7464 26.8856 17.8526 26.8856 22.1667C26.8856 26.4807 28.7559 30.5869 32.0232 33.427Z" fill="white"/>
<path d="M41.8134 8.3125C38.9771 8.3125 36.341 9.16684 34.1436 10.6292C34.2552 10.7216 34.3706 10.8101 34.4784 10.9063C37.7418 13.7464 39.616 17.8488 39.616 22.1667C39.616 26.4845 37.7456 30.5869 34.4822 33.427C34.3745 33.5194 34.259 33.6117 34.1474 33.7041C36.3448 35.1665 38.981 36.0208 41.8172 36.0208C49.4678 36.0208 55.6714 29.8172 55.6714 22.1667C55.6714 14.5161 49.464 8.3125 41.8134 8.3125Z" fill="white"/>
<path d="M33.2505 11.2798C33.0735 11.4183 32.8965 11.5646 32.7271 11.7147C29.8062 14.2546 27.959 17.9952 27.959 22.1669C27.959 26.3385 29.8062 30.0791 32.7271 32.6191C32.8965 32.7691 33.0735 32.9115 33.2505 33.0539C33.4275 32.9115 33.6046 32.7691 33.7739 32.6191C36.6948 30.0791 38.542 26.3385 38.542 22.1669C38.542 17.9952 36.6948 14.2546 33.7739 11.7147C33.6046 11.5646 33.4275 11.4222 33.2505 11.2798Z" fill="white"/>
</g>
<defs>
<clipPath id="clip0_318_5277">
<rect width="66.5" height="44.3333" fill="white"/>
</clipPath>
</defs>
</svg>
