<svg width="67" height="45" viewBox="0 0 67 45" fill="none" xmlns="http://www.w3.org/2000/svg">
<g clip-path="url(#clip0_318_5276)">
<path fill-rule="evenodd" clip-rule="evenodd" d="M60.9583 1.38542H5.54167C3.24623 1.38542 1.38542 3.24623 1.38542 5.54167V38.7917C1.38542 41.0871 3.24623 42.9479 5.54167 42.9479H60.9583C63.2538 42.9479 65.1146 41.0871 65.1146 38.7917V5.54167C65.1146 3.24623 63.2538 1.38542 60.9583 1.38542ZM5.54167 0C2.48109 0 0 2.48109 0 5.54167V38.7917C0 41.8522 2.48109 44.3333 5.54167 44.3333H60.9583C64.0189 44.3333 66.5 41.8522 66.5 38.7917V5.54167C66.5 2.48109 64.0189 0 60.9583 0H5.54167Z" fill="white"/>
<path d="M26.4725 14.1479L19.733 30.2275H15.336L12.0195 17.3952C11.8181 16.6048 11.643 16.3153 11.0307 15.9823C10.0309 15.4399 8.37987 14.931 6.92725 14.6152L7.02591 14.1479H14.1038C15.006 14.1479 15.817 14.7484 16.0218 15.7873L17.7734 25.0919L22.1023 14.1476H26.4725V14.1479ZM43.7008 24.9776C43.7184 20.7337 37.8323 20.4999 37.8728 18.6041C37.8854 18.0271 38.4348 17.4137 39.6373 17.2571C40.2333 17.1791 41.8755 17.1196 43.738 17.9767L44.4686 14.5669C43.4678 14.2036 42.18 13.854 40.5778 13.854C36.4663 13.854 33.5729 16.0396 33.5485 19.1693C33.5219 21.4842 35.6137 22.7759 37.1897 23.5451C38.811 24.3328 39.355 24.839 39.3488 25.5436C39.3373 26.6222 38.0557 27.0984 36.858 27.1172C34.7673 27.1493 33.5541 26.5515 32.587 26.1018L31.8331 29.6245C32.805 30.0704 34.5989 30.4594 36.4588 30.479C40.8288 30.479 43.6873 28.3204 43.7008 24.9776ZM54.5576 30.2275H58.4047L55.0467 14.1479H51.4958C50.6974 14.1479 50.0239 14.6128 49.7257 15.3275L43.4839 30.2275H47.8516L48.7187 27.8258H54.0555L54.5576 30.2275ZM49.9164 24.5302L52.1058 18.4929L53.3659 24.5302H49.9164ZM32.4157 14.1479L28.9761 30.2275H24.8167L28.2576 14.1479H32.4157Z" fill="white"/>
</g>
<defs>
<clipPath id="clip0_318_5276">
<rect width="66.5" height="44.3333" fill="white"/>
</clipPath>
</defs>
</svg>
