<svg width="155" height="56" viewBox="0 0 155 56" fill="none" xmlns="http://www.w3.org/2000/svg">
<path d="M44.8539 27.5587C44.8539 29.6844 44.8539 32.1943 44.8956 33.9378H39.7026C39.6171 33.3428 39.5733 32.1096 39.5316 31.1738C38.287 33.4275 36.269 34.448 33.265 34.448C29.0164 34.448 25.9268 32.0249 25.9268 26.3668V12.076H31.2491V25.3029C31.2491 27.8541 32.0204 30.0665 35.0266 30.0665C38.2453 30.0665 39.5337 28.3231 39.5337 23.6441V12.076H44.8559V27.5587H44.8539ZM54.8104 24.1131C54.8104 27.3873 56.4844 30.238 59.7887 30.238C62.6218 30.238 63.5224 28.9614 64.1249 27.5587H69.4909C68.6758 30.2814 66.2721 34.448 59.6198 34.448C52.4943 34.448 49.4465 29.0048 49.4465 23.3054C49.4465 16.5442 52.9238 11.5678 59.8763 11.5678C67.302 11.5678 69.7911 17.0544 69.7911 22.2436C69.7911 22.9666 69.7911 23.4768 69.7036 24.1151H54.8104V24.1131ZM64.4251 20.7542C64.3813 17.8187 63.093 15.4369 59.8325 15.4369C56.572 15.4369 55.2399 17.6473 54.9397 20.7542H64.4251ZM74.3379 17.5646C74.3379 15.6931 74.3379 13.7368 74.2941 12.078H79.4454C79.5747 12.673 79.6601 14.4598 79.6601 15.1395C80.4335 13.6087 82.2368 11.5678 86.227 11.5678C90.5631 11.5678 93.5672 14.3751 93.5672 19.9898V33.9398H88.2449V20.5848C88.2449 17.8621 87.2568 15.9058 84.3382 15.9058C81.2049 15.9058 79.6601 17.9055 79.6601 21.9461V33.9398H74.3379V17.5646ZM124.725 12.076H130.047V33.9378H124.725V12.076ZM134.296 2.84619L129.662 8.80174H124.896L127.9 2.84619H134.296ZM153.354 28.5792C153.354 30.6202 153.528 33.3841 153.655 33.9378H148.547C148.374 33.4709 148.247 32.3637 148.203 31.556C147.43 32.8739 145.843 34.448 141.807 34.448C136.529 34.448 134.296 31.0023 134.296 27.6434C134.296 22.7104 138.288 20.4133 144.77 20.4133H148.118V18.9239C148.118 17.2217 147.559 15.4369 144.255 15.4369C141.336 15.4369 140.736 16.7549 140.436 18.3723H135.328C135.628 14.7986 137.905 11.5244 144.472 11.5678C150.223 11.6091 153.357 13.8649 153.357 18.9673V28.5792H153.354ZM148.161 23.7309H145.287C141.38 23.7309 139.664 24.8795 139.664 27.346C139.664 29.1328 140.865 30.5789 143.227 30.5789C147.605 30.5789 148.164 27.6021 148.164 24.3692V23.7309H148.161ZM12.5409 11.5657C11.2838 11.5657 10.2373 11.7392 9.36383 12.0326V16.0525C9.85165 15.9286 10.3916 15.8645 10.9941 15.8645C14.4714 15.8645 16.1016 18.7153 16.1016 22.7104C16.1016 27.222 14.2545 30.1967 10.9086 30.1967C7.93997 30.1967 5.96367 28.9139 5.96367 24.3465V2.84619H0.64767V26.7118C0.64767 29.1349 0.64767 31.5601 0.601807 33.9398H5.70934C5.80106 33.3903 5.92406 32.4525 5.92406 31.5993C6.99977 33.3449 8.58623 34.4501 11.9322 34.4501C18.2468 34.4501 21.5469 29.0068 21.5469 22.5823C21.5469 16.1579 18.3698 11.5678 12.5367 11.5678L12.5409 11.5657ZM118.93 26.7118V2.84619H113.614V24.3465C113.614 28.9139 111.637 30.1967 108.669 30.1967C105.323 30.1967 103.476 27.222 103.476 22.7104C103.476 18.7153 105.106 15.8645 108.583 15.8645C109.186 15.8645 109.726 15.9306 110.214 16.0525V12.0326C109.342 11.7392 108.296 11.5657 107.036 11.5657C101.203 11.5657 98.0264 16.3293 98.0264 22.5803C98.0264 28.8312 101.326 34.448 107.643 34.448C110.989 34.448 112.576 33.3428 113.651 31.5973C113.651 32.4504 113.774 33.3883 113.866 33.9378H118.974C118.928 31.558 118.928 29.1349 118.928 26.7097L118.93 26.7118Z" fill="white"/>
<g clip-path="url(#clip0_318_5241)">
<path d="M11.6365 47.1329H9.37549V46.6387H14.4367V47.1329H12.1674V53.5718H11.6393V47.1329H11.6365Z" fill="white"/>
<path d="M18.3208 46.6387H18.8407V49.6596H22.8814V46.6387H23.4013V53.5718H22.8814V50.1538H18.8407V53.5718H18.3208V46.6387Z" fill="white"/>
<path d="M32.2226 50.1649H28.787V53.0776H32.5471L32.4701 53.5718H28.2671V46.6387H32.3931V47.1329H28.787V49.6679H32.2226V50.1621V50.1649Z" fill="white"/>
<path d="M42.147 46.6387H44.5511C45.7834 46.6387 46.6278 47.3411 46.6278 48.5712C46.6278 49.8012 45.7916 50.5536 44.4823 50.5536H42.6751V53.5746H42.147V46.6415V46.6387ZM42.6751 50.0539H44.5318C45.6183 50.0539 46.0722 49.4597 46.0722 48.5878C46.0722 47.6577 45.4753 47.1301 44.5703 47.1301H42.6751V50.0511V50.0539Z" fill="white"/>
<path d="M54.8358 50.1649H51.4003V53.0776H55.1604L55.0834 53.5718H50.8804V46.6387H55.0064V47.1329H51.4003V49.6679H54.8358V50.1621V50.1649Z" fill="white"/>
<path d="M59.9026 50.3315V53.5718H59.3745V46.6387H61.7896C63.1182 46.6387 63.8196 47.3717 63.8196 48.4601C63.8196 49.3403 63.3107 49.915 62.5598 50.0844C63.253 50.2538 63.7151 50.7175 63.7151 51.8975V52.1641C63.7151 52.65 63.6766 53.3025 63.8003 53.5718H63.2722C63.1484 53.2747 63.1759 52.7194 63.1759 52.1252V51.9475C63.1759 50.8091 62.8486 50.3315 61.5585 50.3315H59.9026ZM59.9026 49.8373H61.5283C62.7111 49.8373 63.2612 49.3819 63.2612 48.4712C63.2612 47.6188 62.7221 47.1329 61.6741 47.1329H59.9026V49.8373Z" fill="white"/>
<path d="M68.3501 46.6387H72.4293V47.1329H68.87V49.7484H72.2093V50.2427H68.87V53.5718H68.3501V46.6387Z" fill="white"/>
<path d="M80.4584 50.1649H77.0228V53.0776H80.783L80.706 53.5718H76.5029V46.6387H80.6289V47.1329H77.0228V49.6679H80.4584V50.1621V50.1649Z" fill="white"/>
<path d="M90.039 51.7197C89.7227 52.8192 88.9333 53.6522 87.5084 53.6522C85.5747 53.6522 84.5542 52.0667 84.5542 50.1148C84.5542 48.1629 85.5554 46.5386 87.5167 46.5386C88.969 46.5386 89.8245 47.3716 90.0473 48.5294H89.5274C89.2193 47.627 88.6527 47.0328 87.4864 47.0328C85.814 47.0328 85.1098 48.6071 85.1098 50.1037C85.1098 51.6003 85.803 53.1552 87.5249 53.1552C88.6224 53.1552 89.1781 52.5693 89.5164 51.7197H90.0363H90.039Z" fill="white"/>
<path d="M95.8016 47.1329H93.5405V46.6387H98.6018V47.1329H96.3325V53.5718H95.8043V47.1329H95.8016Z" fill="white"/>
<path d="M107.871 46.6387H110.275C111.508 46.6387 112.352 47.3411 112.352 48.5712C112.352 49.8012 111.516 50.5536 110.207 50.5536H108.397V53.5746H107.869V46.6415L107.871 46.6387ZM108.402 50.0539H110.259C111.346 50.0539 111.799 49.4597 111.799 48.5878C111.799 47.6577 111.202 47.1301 110.298 47.1301H108.402V50.0511V50.0539Z" fill="white"/>
<path d="M116.605 46.6387H117.125V53.0776H120.742L120.646 53.5718H116.605V46.6387Z" fill="white"/>
<path d="M125.762 51.1727L124.907 53.5689H124.378L126.851 46.6357H127.467L130.045 53.5689H129.478L128.603 51.1727H125.765H125.762ZM128.427 50.6784C127.676 48.6182 127.291 47.627 127.157 47.1605H127.146C126.983 47.6853 126.549 48.9125 125.944 50.6784H128.425H128.427Z" fill="white"/>
<path d="M134.121 53.5718V46.6387H134.891C135.939 48.3018 138.401 52.1752 138.825 52.9276H138.836C138.778 51.9281 138.789 50.9063 138.789 49.779V46.6387H139.317V53.5718H138.605C137.603 51.9669 135.103 47.9353 134.622 47.1718H134.611C134.657 48.0825 134.649 49.0932 134.649 50.351V53.569H134.121V53.5718Z" fill="white"/>
</g>
<defs>
<clipPath id="clip0_318_5241">
<rect width="129.942" height="7.1136" fill="white" transform="translate(9.37549 46.5386)"/>
</clipPath>
</defs>
</svg>
