<svg width="114" height="34" viewBox="0 0 114 34" fill="none" xmlns="http://www.w3.org/2000/svg">
<path d="M9.91667 21.929L14.2257 20.837L16.026 26.3856L9.91667 21.929ZM19.8333 14.7571H12.2483L9.91667 7.61475L7.58507 14.7571H0L6.13889 19.1842L3.80729 26.3266L9.94618 21.8995L13.724 19.1842L19.8333 14.7571Z" fill="#219653"/>
<path d="M33.0634 9.89974V24H30.1678V9.89974H33.0634ZM37.4019 9.89974V12.1755H25.8971V9.89974H37.4019ZM40.9948 15.8071V24H38.2057V13.5216H40.8302L40.9948 15.8071ZM44.1519 13.4539L44.1034 16.0396C43.9679 16.0202 43.8032 16.004 43.6095 15.9911C43.4223 15.9718 43.2512 15.9621 43.0963 15.9621C42.7024 15.9621 42.3603 16.0137 42.0697 16.117C41.7857 16.2139 41.5468 16.3591 41.3531 16.5528C41.1659 16.7465 41.0238 16.9822 40.927 17.2598C40.8366 17.5374 40.785 17.8537 40.7721 18.2088L40.2104 18.0345C40.2104 17.3566 40.2782 16.7336 40.4137 16.1654C40.5493 15.5908 40.7462 15.0905 41.0045 14.6644C41.2692 14.2383 41.592 13.909 41.9729 13.6766C42.3538 13.4442 42.7896 13.328 43.2803 13.328C43.4352 13.328 43.5934 13.3409 43.7548 13.3667C43.9162 13.3861 44.0486 13.4151 44.1519 13.4539ZM51.6668 21.4918V13.5216H54.4559V24H51.8315L51.6668 21.4918ZM51.9767 19.3419L52.7999 19.3225C52.7999 20.0198 52.7192 20.6686 52.5578 21.269C52.3964 21.863 52.1543 22.3795 51.8315 22.8185C51.5087 23.2511 51.1019 23.59 50.6112 23.8354C50.1206 24.0742 49.5427 24.1937 48.8778 24.1937C48.3677 24.1937 47.8964 24.1227 47.4639 23.9806C47.0378 23.8321 46.6698 23.6029 46.3599 23.2931C46.0564 22.9767 45.8175 22.5732 45.6432 22.0825C45.4754 21.5854 45.3914 20.9882 45.3914 20.2909V13.5216H48.1805V20.3103C48.1805 20.6202 48.216 20.8817 48.287 21.0947C48.3645 21.3078 48.471 21.4821 48.6066 21.6177C48.7422 21.7533 48.9004 21.8501 49.0811 21.9082C49.2684 21.9663 49.475 21.9954 49.7009 21.9954C50.2755 21.9954 50.7275 21.8792 51.0567 21.6467C51.3924 21.4143 51.6281 21.098 51.7637 20.6977C51.9057 20.2909 51.9767 19.839 51.9767 19.3419ZM62.2517 21.1044C62.2517 20.9043 62.1936 20.7235 62.0774 20.5621C61.9612 20.4007 61.7449 20.2522 61.4285 20.1166C61.1187 19.9746 60.6699 19.8455 60.0824 19.7292C59.553 19.613 59.0591 19.4678 58.6007 19.2935C58.1488 19.1127 57.755 18.8964 57.4193 18.6446C57.09 18.3928 56.8318 18.0958 56.6445 17.7537C56.4573 17.405 56.3637 17.008 56.3637 16.5625C56.3637 16.1235 56.4573 15.7103 56.6445 15.3229C56.8382 14.9355 57.1126 14.5934 57.4677 14.2964C57.8292 13.9929 58.2683 13.7573 58.7847 13.5894C59.3077 13.4151 59.8952 13.328 60.5473 13.328C61.4576 13.328 62.2388 13.4732 62.8909 13.7638C63.5494 14.0543 64.053 14.4546 64.4016 14.9646C64.7567 15.4682 64.9342 16.0428 64.9342 16.6884H62.1452C62.1452 16.4172 62.0871 16.1751 61.9709 15.9621C61.8611 15.7426 61.6868 15.5715 61.4479 15.4488C61.2155 15.3197 60.9121 15.2551 60.5376 15.2551C60.2277 15.2551 59.9598 15.31 59.7338 15.4198C59.5078 15.5231 59.3335 15.6651 59.2109 15.8459C59.0946 16.0202 59.0365 16.2139 59.0365 16.4269C59.0365 16.5883 59.0688 16.7336 59.1334 16.8627C59.2044 16.9854 59.3174 17.0984 59.4723 17.2017C59.6273 17.305 59.8274 17.4018 60.0728 17.4922C60.3245 17.5761 60.6344 17.6536 61.0024 17.7246C61.7578 17.8796 62.4325 18.0829 63.0264 18.3347C63.6204 18.5801 64.0917 18.9158 64.4403 19.3419C64.789 19.7615 64.9633 20.3135 64.9633 20.9979C64.9633 21.4627 64.86 21.8888 64.6534 22.2762C64.4468 22.6636 64.1498 23.0025 63.7624 23.2931C63.3751 23.5771 62.9102 23.7999 62.3679 23.9613C61.8321 24.1162 61.2284 24.1937 60.557 24.1937C59.5821 24.1937 58.7557 24.0194 58.0778 23.6707C57.4064 23.3221 56.8963 22.8799 56.5477 22.344C56.2055 21.8017 56.0344 21.2464 56.0344 20.6783H58.6782C58.6911 21.0592 58.788 21.3659 58.9687 21.5983C59.156 21.8307 59.3916 21.9986 59.6757 22.1019C59.9662 22.2052 60.2793 22.2568 60.6151 22.2568C60.9766 22.2568 61.2768 22.2084 61.5157 22.1116C61.7546 22.0083 61.9354 21.8727 62.058 21.7048C62.1871 21.5305 62.2517 21.3304 62.2517 21.1044ZM71.9069 13.5216V15.4972H65.8058V13.5216H71.9069ZM67.3166 10.936H70.1056V20.8429C70.1056 21.1464 70.1444 21.3788 70.2218 21.5402C70.3058 21.7016 70.4284 21.8146 70.5898 21.8792C70.7512 21.9373 70.9546 21.9663 71.1999 21.9663C71.3743 21.9663 71.5292 21.9599 71.6648 21.9469C71.8068 21.9276 71.9263 21.9082 72.0231 21.8888L72.0328 23.9419C71.7939 24.0194 71.5357 24.0807 71.2581 24.1259C70.9804 24.1711 70.6738 24.1937 70.3381 24.1937C69.7247 24.1937 69.1889 24.0936 68.7305 23.8935C68.2785 23.6869 67.9299 23.3576 67.6846 22.9057C67.4392 22.4537 67.3166 21.8598 67.3166 21.1238V10.936ZM76.2842 15.536V28.0286H73.4951V13.5216H76.0808L76.2842 15.536ZM82.9179 18.6446V18.848C82.9179 19.6098 82.8275 20.3168 82.6467 20.9688C82.4724 21.6209 82.2142 22.189 81.872 22.6733C81.5298 23.151 81.1037 23.5255 80.5937 23.7966C80.0901 24.0613 79.509 24.1937 78.8505 24.1937C78.2113 24.1937 77.6561 24.0646 77.1848 23.8063C76.7135 23.5481 76.3165 23.1865 75.9937 22.7217C75.6773 22.2504 75.4223 21.7048 75.2286 21.085C75.0349 20.4653 74.8864 19.8003 74.7831 19.0901V18.5575C74.8864 17.7956 75.0349 17.0984 75.2286 16.4657C75.4223 15.8265 75.6773 15.2745 75.9937 14.8097C76.3165 14.3384 76.7103 13.9736 77.1751 13.7153C77.6464 13.4571 78.1984 13.328 78.8311 13.328C79.4961 13.328 80.0804 13.4539 80.584 13.7056C81.094 13.9574 81.5201 14.319 81.8623 14.7903C82.2109 15.2616 82.4724 15.8233 82.6467 16.4753C82.8275 17.1274 82.9179 17.8505 82.9179 18.6446ZM80.1191 18.848V18.6446C80.1191 18.1991 80.0804 17.7892 80.0029 17.4147C79.9319 17.0338 79.8157 16.7013 79.6543 16.4172C79.4993 16.1332 79.2928 15.9137 79.0345 15.7587C78.7827 15.5973 78.476 15.5166 78.1145 15.5166C77.7336 15.5166 77.4076 15.5779 77.1364 15.7006C76.8717 15.8233 76.6554 16.0008 76.4875 16.2332C76.3197 16.4657 76.1938 16.7433 76.1099 17.0661C76.0259 17.3889 75.9743 17.7537 75.9549 18.1604V19.5065C75.9872 19.9843 76.0776 20.4136 76.2261 20.7945C76.3746 21.169 76.6038 21.466 76.9137 21.6855C77.2235 21.905 77.6303 22.0147 78.1339 22.0147C78.5019 22.0147 78.8118 21.934 79.0636 21.7726C79.3153 21.6048 79.5187 21.3756 79.6737 21.085C79.8351 20.7945 79.9481 20.4588 80.0126 20.0779C80.0836 19.697 80.1191 19.287 80.1191 18.848ZM87.5954 13.5216V24H84.7966V13.5216H87.5954ZM84.6223 10.7907C84.6223 10.384 84.7643 10.0482 85.0484 9.78353C85.3325 9.51883 85.7134 9.38648 86.1912 9.38648C86.6625 9.38648 87.0401 9.51883 87.3242 9.78353C87.6147 10.0482 87.76 10.384 87.76 10.7907C87.76 11.1974 87.6147 11.5331 87.3242 11.7979C87.0401 12.0626 86.6625 12.1949 86.1912 12.1949C85.7134 12.1949 85.3325 12.0626 85.0484 11.7979C84.7643 11.5331 84.6223 11.1974 84.6223 10.7907ZM92.8442 9.125V24H90.0455V9.125H92.8442ZM94.7036 18.8674V18.664C94.7036 17.8957 94.8134 17.1887 95.0329 16.5431C95.2524 15.8911 95.572 15.3261 95.9916 14.8484C96.4113 14.3706 96.9278 13.9994 97.5411 13.7347C98.1544 13.4635 98.8581 13.328 99.6523 13.328C100.446 13.328 101.153 13.4635 101.773 13.7347C102.393 13.9994 102.913 14.3706 103.332 14.8484C103.758 15.3261 104.081 15.8911 104.301 16.5431C104.52 17.1887 104.63 17.8957 104.63 18.664V18.8674C104.63 19.6292 104.52 20.3361 104.301 20.9882C104.081 21.6338 103.758 22.1987 103.332 22.6829C102.913 23.1607 102.396 23.5319 101.783 23.7966C101.169 24.0613 100.466 24.1937 99.6716 24.1937C98.8775 24.1937 98.1706 24.0613 97.5508 23.7966C96.9374 23.5319 96.4177 23.1607 95.9916 22.6829C95.572 22.1987 95.2524 21.6338 95.0329 20.9882C94.8134 20.3361 94.7036 19.6292 94.7036 18.8674ZM97.4927 18.664V18.8674C97.4927 19.3064 97.5314 19.7163 97.6089 20.0972C97.6864 20.4782 97.809 20.8139 97.9769 21.1044C98.1512 21.3885 98.3772 21.6112 98.6548 21.7726C98.9324 21.934 99.2713 22.0147 99.6716 22.0147C100.059 22.0147 100.391 21.934 100.669 21.7726C100.947 21.6112 101.169 21.3885 101.337 21.1044C101.505 20.8139 101.628 20.4782 101.705 20.0972C101.789 19.7163 101.831 19.3064 101.831 18.8674V18.664C101.831 18.2379 101.789 17.8376 101.705 17.4631C101.628 17.0822 101.502 16.7465 101.328 16.456C101.16 16.159 100.937 15.9266 100.659 15.7587C100.382 15.5908 100.046 15.5069 99.6523 15.5069C99.2584 15.5069 98.9227 15.5908 98.6451 15.7587C98.3739 15.9266 98.1512 16.159 97.9769 16.456C97.809 16.7465 97.6864 17.0822 97.6089 17.4631C97.5314 17.8376 97.4927 18.2379 97.4927 18.664ZM111.477 13.5216V15.4972H105.376V13.5216H111.477ZM106.886 10.936H109.675V20.8429C109.675 21.1464 109.714 21.3788 109.792 21.5402C109.876 21.7016 109.998 21.8146 110.16 21.8792C110.321 21.9373 110.524 21.9663 110.77 21.9663C110.944 21.9663 111.099 21.9599 111.235 21.9469C111.377 21.9276 111.496 21.9082 111.593 21.8888L111.603 23.9419C111.364 24.0194 111.105 24.0807 110.828 24.1259C110.55 24.1711 110.244 24.1937 109.908 24.1937C109.295 24.1937 108.759 24.0936 108.3 23.8935C107.848 23.6869 107.5 23.3576 107.254 22.9057C107.009 22.4537 106.886 21.8598 106.886 21.1238V10.936Z" fill="white"/>
</svg>
