<svg width="24" height="24" viewBox="0 0 24 24" fill="none" xmlns="http://www.w3.org/2000/svg">
<path d="M0 12C0 5.37258 5.37258 0 12 0C18.6274 0 24 5.37258 24 12C24 18.6274 18.6274 24 12 24C5.37258 24 0 18.6274 0 12Z" fill="#2E3138"/>
<path d="M16.5608 9.90391C16.1896 9.90391 15.8807 9.9551 15.6236 10.0416V11.2262C15.7675 11.1901 15.9266 11.171 16.104 11.171C17.1303 11.171 17.6107 12.0106 17.6107 13.1887C17.6107 14.5185 17.0659 15.3952 16.0791 15.3952C15.2043 15.3952 14.6213 15.0173 14.6213 13.671V7.3335H13.053V14.3687C13.053 15.0831 13.053 15.7974 13.0395 16.4994H14.5454C14.5732 16.337 14.6096 16.0604 14.6096 15.8088C14.927 16.3237 15.3942 16.6494 16.381 16.6494C18.2436 16.6494 19.2172 15.045 19.2172 13.1508C19.2172 11.2567 18.2803 9.90391 16.5608 9.90391ZM11.836 13.8064L9.82477 13.7058L11.3976 14.9512L11.1262 15.3415L9.39222 14.3261L10.2018 16.1529L9.77793 16.3733L8.71908 14.6759L8.57804 16.6668H8.0994L7.95836 14.6759L6.89951 16.3733L6.47562 16.1529L7.2842 14.3261L5.55018 15.3415L5.27878 14.9512L6.85267 13.7058L4.84037 13.8064L4.78284 13.3362L6.76051 12.9582L4.93152 12.1213L5.10133 11.6785L7.03012 12.2532L5.8035 10.6707L6.1612 10.3563L7.5999 11.7537L7.25645 9.78742L7.72057 9.67446L8.33821 11.5734L8.95585 9.67446L9.42099 9.78742L9.07678 11.7537L10.5155 10.3563L10.8732 10.6707L9.64656 12.2532L11.5753 11.6785L11.7452 12.1213L9.91617 12.9582L11.8938 13.3362L11.836 13.8064Z" fill="white"/>
</svg>
