<svg width="768" height="142" viewBox="0 0 768 142" fill="none" xmlns="http://www.w3.org/2000/svg">
<g opacity="0.09">
<path d="M221.324 45.2242H195.964V108.386C210.279 106.486 221.324 94.2326 221.324 79.3981V45.2242ZM291.795 127.81H316.315L320.165 71.5094H295.644L291.795 127.81ZM266.33 127.81H284.007L287.856 71.5094H266.33V127.81ZM162.833 108.644H188.194V45.2242H162.833V108.644ZM113.785 91.9557C114.949 97.4433 115.244 103.074 114.666 108.644H155.064V87.3903H112.817L113.785 91.9557ZM74.8787 108.644H106.846C107.458 103.619 107.237 98.5253 106.185 93.568L104.671 86.4283L76.5789 76.3336L74.8787 108.644ZM49.1189 108.644H67.0984L68.9646 73.1764L51.9822 64.1344L49.1189 108.644ZM8.67168 108.644H41.3338L44.4539 60.1266L12.9363 43.3483L8.67168 108.644ZM-48.8391 108.644H0.885544L2.28789 87.1725L-41.6477 84.8092L-48.8391 108.644ZM121.004 64.2311L114.042 79.6207H155.064V62.0201L121.004 64.2311ZM-39.3371 77.1539L2.79472 79.4196L4.0955 59.4996L-32.548 54.6578L-39.3371 77.1539ZM90.4998 73.0797L105.96 78.6364L114.609 59.5162L116.958 30.861L105.279 30.5201L90.4998 73.0797ZM64.2918 61.8873L74.5477 67.3473L83.1883 70.4528L98.7254 25.7106L100.453 8.42444L81.5408 8.03479L64.2918 61.8873ZM229.094 44.9293V63.7399H274.989V41.2965L229.094 44.9293ZM282.759 63.7399H293.038L294.91 50.9049C295.896 44.1409 299.873 38.2336 305.655 34.7574V11.2926L282.759 11.0328V63.7399ZM42.0594 50.0514L57.3221 58.1764L73.4353 7.8678L55.5389 7.49866L42.0594 50.0514ZM122.665 56.3375L155.064 54.235V31.9703L124.734 31.0865L122.665 56.3375ZM-30.2736 47.1217L4.60332 51.7301L5.41289 39.3424L-4.85274 33.8776L-23.7033 25.3502L-30.2736 47.1217ZM10.4412 -18.0033L11.5584 -7.23181C12.7871 4.61743 10.0409 16.5395 3.75175 26.6569L2.35039 28.9108L35.0867 46.3385L44.3094 17.2223L30.5877 18.3785L29.9363 10.6364L46.8465 9.21155L48.8289 2.95569V-18.0824L46.5867 -20.8842L10.4412 -18.0033ZM162.833 37.4557H225.051L274.989 33.5026V10.9449L162.833 9.67444V37.4557ZM-45.4074 -12.8676L-28.2189 1.66077L-33.2346 7.59436L-49.6516 -6.28162C-55.9653 8.04907 -48.7064 25.2403 -33.3166 30.3151L-29.8605 18.861C-29.7564 18.5159 -29.6042 18.1867 -29.4094 17.8834L-4.8586 -20.3295L-25.5891 -37.9691L-45.4074 -12.8676ZM2.47246 -17.3676L-20.4416 18.2975L-4.64375 25.4449L-2.84688 22.5543C2.53223 13.9009 4.88172 3.70465 3.83086 -6.43005L2.69414 -17.3851L2.47246 -17.3676ZM106.825 22.7926L155.064 24.1969V9.55042L108.244 8.58459L106.825 22.7926ZM87.6961 -29.3617C80.9819 -23.724 72.9894 -19.8159 64.4168 -17.9789L56.5984 -16.3041V-0.250366L154.752 1.77307L152.569 -27.0287C136.533 -29.703 124.246 -42.1553 121.37 -57.6381L87.6961 -29.3617ZM72.7488 -62.4789C66.8803 -59.6319 62.0349 -55.041 58.8758 -49.3344L50.7469 -34.6498C49.4545 -32.3149 49.699 -29.431 51.366 -27.347L54.2469 -23.7465L62.7889 -25.5756C70.1212 -27.1468 76.9572 -30.4898 82.7 -35.3119L120.783 -67.2894L121.232 -86.0004L72.7488 -62.4789ZM7.7498 -25.5824L42.4959 -28.3519C41.7533 -31.7025 42.2179 -35.2834 43.95 -38.4125L52.0789 -53.097C56.0136 -60.2048 62.0488 -65.9231 69.3582 -69.4691L121.442 -94.7367L121.654 -103.613L120.386 -115.025L68.7137 -120.47L7.7498 -25.5824ZM-21.0139 -44.2767L-0.622269 -26.9252L23.3963 -64.309L1.53398 -78.6791L-21.0139 -44.2767ZM128.509 -65.349C128.155 -50.5926 138.453 -37.804 152.775 -34.8881L159.577 -99.7855L156.155 -99.89H129.338L128.509 -65.349ZM64.1297 -180.987C62.6898 -179.171 61.3913 -177.248 60.2459 -175.234L30.3533 -122.663C30.3129 -122.592 30.2702 -122.523 30.2254 -122.454L5.79277 -85.1771L27.5955 -70.8451L100.027 -183.584L83.8006 -205.79L64.1297 -180.987ZM298.015 -103.304L320.336 -102.62L317.792 -202.079L295.987 -204.099L298.015 -103.304ZM266.255 -104.281L290.24 -103.543L288.209 -204.483H264.22L266.255 -104.281ZM160.096 -107.542L188.194 -106.679V-151.365H160.096V-107.542ZM127.796 -118.685L129.022 -107.66H152.326V-151.365H129.26L127.796 -118.685ZM73.4139 -127.786L120.205 -122.856L121.482 -151.365H88.5633L73.4139 -127.786ZM146.265 -239.22L155.078 -198.789L155.114 -198.6C155.125 -198.536 155.134 -198.472 155.141 -198.408L159.673 -159.134H199.167L189.618 -209.764C188.648 -214.905 188.435 -220.161 188.985 -225.364L190.778 -242.319L150.494 -242.798L146.265 -239.22ZM107.233 -180.427L93.5545 -159.134H151.851L147.958 -192.883L107.233 -180.427ZM111.612 -224.909C108.25 -223.623 105.051 -221.946 102.08 -219.913L89.4275 -211.257L106.241 -188.248L146.724 -200.631L139.139 -235.434L111.612 -224.909ZM357.955 -496.052C361.582 -497.088 365.382 -497.376 369.124 -496.899L389.736 -494.267H547.199C547.365 -494.267 547.531 -494.257 547.696 -494.236L564.672 -492.045C575.863 -490.601 582.877 -479.209 579.128 -468.567L550.89 -388.412L535.6 -339.394C534.143 -334.722 535.914 -329.646 539.961 -326.894C543.617 -324.408 546.284 -320.718 547.499 -316.467L547.994 -314.737C549.014 -311.168 549.186 -307.41 548.498 -303.763L548.4 -303.244C545.559 -288.184 530.403 -278.81 515.659 -282.993L437.182 -305.254V-247.725L467.305 -247.298L467.194 -239.53L235.011 -242.815L235.121 -250.583L389.55 -248.399L391.544 -318.2L330.4 -335.544V-286.726H352.253V-278.956H235.065V-286.726H260.752V-355.301L234.006 -362.887L236.126 -370.362L290.322 -354.989V-400.194C290.322 -409.74 292.867 -419.114 297.695 -427.35L307.069 -443.341C308.793 -446.283 310.794 -449.054 313.044 -451.616L344.688 -487.656C348.213 -491.67 352.819 -494.585 357.955 -496.052ZM397.318 -248.288L429.413 -247.835V-307.458L399.254 -316.013L397.318 -248.288ZM161.984 -296.394L153.727 -250.53L183.872 -250.17L187.866 -295.202L162.172 -297.516C162.112 -297.142 162.051 -296.767 161.984 -296.394ZM302.023 -286.726H322.631V-337.748L303.44 -343.192L302.023 -286.726ZM268.52 -286.726H294.251L295.723 -345.38L268.52 -353.097V-286.726ZM549.263 -437.73L542.299 -411.286C540.906 -405.998 537.333 -401.55 532.469 -399.05C529.391 -397.468 525.943 -396.745 522.489 -396.954L509.881 -397.72L507.879 -293.276L517.779 -290.467C528.131 -287.531 538.77 -294.112 540.765 -304.685L540.863 -305.203C541.327 -307.662 541.211 -310.196 540.523 -312.602L540.029 -314.332C539.314 -316.834 537.743 -319.007 535.592 -320.47C528.716 -325.146 525.707 -333.769 528.183 -341.707L543.491 -390.781L543.535 -390.914L571.8 -471.149C573.561 -476.149 571.094 -481.443 566.561 -483.517L549.263 -437.73ZM471.177 -303.687L500.15 -295.468L502.117 -398.064L472.551 -398.86L471.177 -303.687ZM434.992 -313.951L463.437 -305.881L464.783 -399.069L434.992 -399.871V-313.951ZM399.398 -324.048L427.222 -316.155V-400.166L399.398 -401.558V-324.048ZM384.791 -457.37C379.674 -456.94 374.739 -455.202 370.467 -452.303L368.515 -450.979C365.645 -449.031 363.058 -446.696 360.827 -444.04L353.205 -434.968L335.481 -406.904C330.43 -398.905 327.971 -389.542 328.441 -380.093L330.256 -343.661L391.629 -326.252V-401.947L387.561 -402.15L358.436 -396.756L357.021 -404.396L384.338 -409.454L393.549 -437.087L384.791 -457.37ZM510.03 -405.494L522.96 -404.709C525.022 -404.584 527.079 -405.016 528.917 -405.96C531.821 -407.453 533.954 -410.108 534.786 -413.265L541.8 -439.898C541.834 -440.028 541.875 -440.155 541.923 -440.281L547.322 -454.575L511.02 -457.191L510.03 -405.494ZM427.222 -416.528C427.222 -424.246 424.4 -431.672 419.33 -437.431L400.668 -433.876L392.601 -409.677L427.222 -407.946V-416.528ZM472.663 -406.629L502.265 -405.831L503.812 -486.498H473.816L472.663 -406.629ZM394.292 -478.915C394.765 -472.917 393.816 -466.9 391.534 -461.35L400.035 -441.664L417.935 -445.074L418.405 -446.184C421.279 -452.977 422.474 -460.362 421.89 -467.714L420.4 -486.498H393.693L394.292 -478.915ZM511.17 -464.97L550.186 -462.158L558.804 -484.968L546.944 -486.498H511.583L511.17 -464.97ZM229.094 79.3981C229.094 99.8406 212.521 116.413 192.079 116.413H-78.7111V108.644H-56.9553L-35.5627 37.7565C-57.3492 30.7084 -66.5864 4.8363 -54.0393 -14.4437L-53.9387 -14.5902C-53.9042 -14.6382 -53.8688 -14.6855 -53.8322 -14.7318L-48.8908 -20.9926L-72.4318 -40.5502L-67.467 -46.5267L-44.0744 -27.0931L-29.2941 -45.8158L-17.2717 -64.1595L-45.4602 -80.7113L-41.5266 -87.4105L-13.008 -70.6654L21.073 -122.664L-35.1828 -143.95L-32.4328 -151.216L25.242 -129.394L51.8445 -176.178L-7.74434 -223.393L-2.92012 -229.483L55.8836 -182.89C56.5697 -183.889 57.2894 -184.865 58.0428 -185.815L66.198 -196.098L12.6521 -252.793L18.3006 -258.128L71.075 -202.248L80.8836 -214.615L81.073 -214.835C81.2709 -215.05 81.492 -215.242 81.7332 -215.407L97.6922 -226.326C101.166 -228.702 104.907 -230.662 108.838 -232.165L139.968 -244.069L145.515 -248.762L154.338 -297.771C154.821 -300.456 155.064 -303.179 155.064 -305.908V-329.935H162.833V-305.908C162.833 -305.691 162.828 -305.474 162.825 -305.258L192.3 -302.602L231.341 -301.509L231.124 -293.744L195.625 -294.737L191.664 -250.078L195.091 -250.036H229.042V-242.267H198.586L196.712 -224.546C196.241 -220.096 196.423 -215.601 197.253 -211.203L207.073 -159.134H229.042V-151.365H195.964V-106.44L258.479 -104.519L256.444 -204.723L234.812 -206.133L235.318 -213.886L260.388 -212.251H292.016L292.195 -212.247C292.255 -212.245 292.315 -212.24 292.375 -212.235L321.765 -209.514H352.253V-201.745H325.572L328.113 -102.38L352.372 -101.634L352.134 -93.8685L307.948 -95.2269V-65.4935H348.42V-57.725H305.937C297.665 -48.0439 283.614 -45.4052 272.321 -51.6791L265.944 -55.222L264.387 -29.8998H348.42V-22.1302H233.423V-29.8998H256.602L258.407 -59.2426L256.218 -60.2963C250.002 -63.2891 243.192 -64.8441 236.293 -64.8441H229.042V-72.6127H236.293C244.358 -72.6126 252.321 -70.7962 259.588 -67.2972L264.131 -65.1097C264.199 -65.077 264.266 -65.0419 264.332 -65.0052L276.095 -58.4711C284.203 -53.9662 294.308 -55.9139 300.179 -62.9486V-95.4652L280.568 -96.0677V-80.2279H272.799V-96.307L167.363 -99.5463L160.11 -30.3392L162.553 1.901L352.297 4.05139L352.209 11.8209L313.424 11.3805V33.5748L352.637 37.4742L351.868 45.2057L310.264 41.068C306.137 43.2928 303.28 47.3484 302.597 52.026L300.889 63.7399H352.253V71.5094H327.953L324.103 127.81H348.42V135.579H229.042V127.81H258.561V71.5094H229.094V79.3981ZM298.092 -352.785L322.366 -345.899L320.681 -379.706C320.131 -390.753 323.007 -401.701 328.913 -411.053L346.778 -439.339L346.926 -439.557C346.977 -439.628 347.031 -439.697 347.088 -439.764L354.878 -449.037C357.569 -452.242 360.691 -455.059 364.153 -457.409L366.104 -458.732C371.634 -462.484 378.047 -464.692 384.682 -465.153C386.258 -469.338 386.9 -473.827 386.547 -478.304L385.865 -486.93L368.14 -489.192C365.443 -489.536 362.704 -489.328 360.09 -488.581C356.387 -487.524 353.067 -485.423 350.526 -482.53L318.882 -446.49C316.958 -444.298 315.246 -441.928 313.771 -439.412L304.397 -423.421C300.268 -416.377 298.092 -408.359 298.092 -400.194V-352.785ZM434.992 -407.643L464.895 -406.838L466.047 -486.498H428.194L429.636 -468.328C430.318 -459.732 428.92 -451.098 425.56 -443.157L425.262 -442.452C431.514 -435.294 434.992 -426.091 434.992 -416.528V-407.643Z" fill="#6F7480"/>
<path d="M108.39 211.323C111.831 211.132 115.281 211.185 118.715 211.482L215.14 219.822L214.47 227.562L118.045 219.223C114.978 218.957 111.895 218.91 108.821 219.081L103.445 219.379L98.4297 230.185L117.894 245.275C125.275 250.998 131.487 258.087 136.193 266.154L151.136 291.769C154.739 297.946 157.414 304.621 159.074 311.578L164.346 333.671L165.846 327.122C169.407 311.565 177.975 297.607 190.235 287.39L196.859 281.87C204.95 275.128 214.405 270.219 224.574 267.481L233.271 265.141C246.657 261.537 260.793 261.825 274.021 265.971L291.535 271.46L289.212 278.873L271.698 273.384C259.88 269.679 247.25 269.423 235.29 272.643L226.594 274.983C217.508 277.429 209.061 281.815 201.833 287.839L195.209 293.358C184.256 302.486 176.601 314.957 173.419 328.855L168.276 351.318L165.091 393.443C163.911 409.049 157.74 423.86 147.49 435.687L141.979 442.045C136.373 448.512 129.673 453.943 122.185 458.086L31.8467 508.069C27.0272 510.736 21.8867 512.776 16.5498 514.139C3.94687 517.356 -9.33443 516.695 -21.5557 512.242L-75.4277 492.612L-76.707 496.095L-84 493.416L5.46582 249.899L-20.8574 238.569C-24.2628 237.103 -28.2277 238.081 -30.5605 240.963C-33.5029 244.598 -37.8853 246.768 -42.5596 246.905L-55.5977 247.289L-55.8252 239.522L-42.7871 239.14C-40.3765 239.069 -38.117 237.949 -36.5996 236.074C-32.0766 230.487 -24.3889 228.591 -17.7861 231.433L8.41504 242.711C9.65072 240.409 11.1915 238.277 13.0029 236.377L17.1064 232.074C27.2478 221.438 41.06 215.064 55.7334 214.249L108.39 211.323ZM99.4023 428.364C99.3489 428.423 99.2933 428.48 99.2363 428.536L88.6172 438.909C79.6238 447.693 67.5576 452.618 54.9883 452.64L-17.6973 455.219C-19.8012 455.293 -21.8306 456.02 -23.5029 457.299C-28.1122 460.823 -34.1426 461.898 -39.6855 460.182L-61.0801 453.558L-72.749 485.319L-18.8955 504.942C-8.14377 508.86 3.54039 509.441 14.6279 506.61C19.323 505.412 23.846 503.617 28.0859 501.271L118.423 451.288C125.113 447.586 131.1 442.734 136.107 436.956L141.619 430.598C150.776 420.032 156.289 406.799 157.344 392.857L159.696 361.748L99.4023 428.364ZM4.375 416.807C1.24393 416.671 -1.74218 418.133 -3.55371 420.69C-7.60225 426.406 -14.7425 429.052 -21.5381 427.355L-48.9395 420.515L-58.3975 446.256L-37.3877 452.761C-34.2483 453.733 -30.8322 453.124 -28.2217 451.128C-25.2691 448.87 -21.6873 447.586 -17.9727 447.454L54.7666 444.875L54.9043 444.872C65.475 444.872 75.6264 440.737 83.1885 433.351L89.6123 427.076L72.1123 419.751L4.375 416.807ZM95.1816 237.497C89.1698 252.951 89.2632 270.178 95.5479 285.635L97.1279 289.521C102.22 302.044 103.729 315.736 101.486 329.067L95.9805 361.799C95.2055 366.405 93.9888 370.927 92.3486 375.301L77.9258 413.761L95.4863 421.112L160.171 349.646L151.518 313.381C150.034 307.166 147.644 301.203 144.425 295.684L129.482 270.068C125.278 262.861 119.727 256.529 113.133 251.416L95.1816 237.497ZM56.1641 222.006C43.463 222.712 31.5077 228.229 22.7295 237.436L18.626 241.738C16.6032 243.86 15.0382 246.375 14.0273 249.126L-8.74805 311.115C-0.939865 308.537 7.69958 310.669 13.4131 316.593L62.3447 298.894L64.9873 306.2L17.335 323.436L22.3525 335.561L15.1729 338.531L8.79297 323.113C4.80103 317.963 -2.29384 316.323 -8.15723 319.255L-10.166 320.259L-11.2852 318.021L-46.2451 413.18L-19.6562 419.818C-15.9675 420.739 -12.0913 419.303 -9.89355 416.2C-6.55637 411.489 -1.05517 408.794 4.71289 409.045L70.3271 411.896L85.0742 372.573C86.5396 368.666 87.626 364.626 88.3184 360.511L89.0107 356.396H31.3574V348.626H90.3174L93.8252 327.779C95.8289 315.869 94.4799 303.635 89.9307 292.446L88.3516 288.561C80.7335 269.824 81.2423 248.765 89.7568 230.419L94.6533 219.867L56.1641 222.006ZM606.94 191.915C607.075 204.03 616.935 213.784 629.054 213.784H671.573C691.073 213.784 709.019 203.705 719.229 187.429L607.11 184.419L606.94 191.915ZM460.826 137.972C476.455 136.04 488.554 122.716 488.555 106.563V72.6045H461.431L460.826 137.972ZM-57.9531 185.127V113.076H-50.1836V185.127C-50.1836 193.814 -46.2848 202.042 -39.5615 207.543L-44.4814 213.556C-53.0081 206.579 -57.9531 196.144 -57.9531 185.127ZM384.613 211.141L452.364 212.835L452.654 181.578H384.613V211.141ZM572.44 192.317L586.403 193.993C591.035 194.549 595.665 193.156 599.209 190.189L601.821 74.6992L572.44 73.9873V192.317ZM534.904 192.647L564.672 191.967V73.7988L534.904 73.0771V192.647ZM-11.8535 180.854L-19.6191 181.104L-21.8096 113.201L-14.0439 112.951L-11.8535 180.854ZM290.973 132.242V171.67H283.203V132.242H290.973ZM50.0273 113.076V153.051H42.2578V113.076H50.0273ZM117.383 113.076V148.67H109.613V113.076H117.383ZM609.678 70.9111C609.678 70.9402 609.677 70.9699 609.677 70.999L608.931 103.989H632.038C632.856 103.989 633.661 103.785 634.38 103.396C635.967 102.536 636.955 100.877 636.955 99.0723V37.5068H644.725V99.0723C644.724 103.728 642.174 108.01 638.08 110.228C636.225 111.232 634.148 111.759 632.038 111.759H608.755L608.094 140.952H609.711C645.031 140.952 673.913 112.798 674.813 77.4893L675.72 41.9814C675.786 39.3906 675.414 36.8072 674.621 34.3398C672.693 28.3406 668.393 23.3925 662.721 20.6465L609.678 -5.03418V70.9111ZM519.323 64.9287L601.908 66.9307V-9.16309L582.023 -22.5508V29.8408H574.255V-27.7812L554.122 -41.335L551.63 29.9766L543.865 29.7051L546.526 -46.418L519.323 -64.2715V64.9287ZM459.649 -7.24707L461.818 29.6123C461.824 29.7001 461.826 29.788 461.825 29.876L461.502 64.8359H511.554V-22.3799L490.341 -24.0078L490.848 28.1602L483.079 28.2354L482.566 -24.5439L462.181 -25.7578L459.649 -7.24707ZM393.484 25.9561H453.82L452.087 -3.51172H394.305L393.484 25.9561ZM127.809 -33.2627L114.558 -23.7617C105.041 -16.9384 98.0777 -7.13058 94.7734 4.10352L87.3193 1.91211C91.1123 -10.9841 99.1067 -22.2435 110.031 -30.0762L123.282 -39.5762L127.809 -33.2627ZM394.521 -11.2812H452.36L455.723 -35.8701L395.332 -40.4521L394.521 -11.2812ZM498.709 -60.1299L498.536 -31.1719L511.554 -30.1719V-65.5928L498.709 -60.1299ZM464.916 -45.7559L463.236 -33.4766L486.713 -32.0791L490.77 -31.7676L490.919 -56.8164L464.916 -45.7559ZM651.193 -307.681C651.193 -316.955 645.279 -325.048 636.74 -328.014L632.956 -317.312C625.871 -297.279 606.929 -283.885 585.679 -283.885C583.253 -283.885 580.831 -283.676 578.44 -283.262L567.97 -281.447C551.786 -278.642 537.26 -269.826 527.302 -256.764L503.488 -225.528L509.503 -218.736C515.673 -211.77 520.453 -203.687 523.583 -194.923L539.364 -150.734C540.675 -147.064 540.948 -143.103 540.153 -139.288C539.3 -135.194 540.406 -130.936 543.143 -127.773L543.325 -127.562L569.08 -153.601L569.264 -153.774C569.453 -153.942 569.658 -154.091 569.876 -154.219L608.667 -176.977L607.85 -182.233C606.039 -193.872 607.076 -205.777 610.872 -216.928L615.594 -230.799L583.521 -250.837C581.344 -252.197 578.944 -253.159 576.431 -253.679C570.29 -254.949 563.9 -253.497 558.912 -249.696L556.673 -247.99L551.964 -254.17L554.204 -255.876C560.981 -261.039 569.662 -263.013 578.005 -261.287C581.419 -260.581 584.681 -259.273 587.638 -257.426L618.166 -238.353L621.003 -246.685C622.428 -250.871 624.617 -254.758 627.459 -258.146L651.193 -286.445V-307.681ZM425.271 -45.9727L456.777 -43.582L460.308 -69.3945L453.608 -73.2227L425.271 -45.9727ZM396.078 -67.2305L395.549 -48.2275L414.883 -46.7607L446.578 -77.2402L426.405 -88.7666L396.078 -67.2305ZM468.087 -68.9414L466.142 -54.7197L508.712 -72.8271L497.68 -84.2139L468.087 -68.9414ZM99.8662 -119.322L64.2725 -59.0859L57.584 -63.0381L93.1777 -123.274L99.8662 -119.322ZM457.101 -218.121C450.7 -209.241 440.833 -203.594 430.064 -202.491V-95.625L464.605 -75.8867L492.365 -90.2148L454.96 -134.813C453.296 -136.798 451.892 -138.987 450.783 -141.328C445.061 -153.408 447.91 -167.809 457.8 -176.8L468.434 -186.467C471.447 -189.206 474.046 -192.369 476.148 -195.856L493.299 -224.303L472.497 -239.482L457.101 -218.121ZM396.349 -76.9521L422.295 -95.376V-202.292H399.839L396.349 -76.9521ZM482.802 -191.846C480.31 -187.713 477.231 -183.964 473.66 -180.718L463.026 -171.051C455.666 -164.36 453.546 -153.644 457.804 -144.654C458.629 -142.912 459.674 -141.283 460.913 -139.806L501.349 -91.5938L504.515 -88.3252L537.845 -122.022L537.268 -122.689C532.946 -127.684 531.2 -134.407 532.547 -140.873C533.05 -143.289 532.878 -145.797 532.048 -148.121L516.267 -192.31C513.47 -200.139 509.2 -207.361 503.688 -213.585L499.06 -218.81L482.802 -191.846ZM749.214 -202.292H728.079C721.804 -202.292 715.561 -201.385 709.545 -199.599L619.361 -172.826L663.354 -114.015C666.647 -109.613 669.431 -104.853 671.653 -99.8262L674.188 -94.0938L677.584 -95.5723C686.766 -99.5715 696.675 -101.636 706.69 -101.636H713.224L732.985 -106.231L728.975 -143.332L736.699 -144.167L740.592 -108.155L749.877 -110.646C756.037 -112.298 762.388 -113.136 768.766 -113.136H780.081C778.062 -122.099 774.168 -130.54 768.649 -137.897L763.793 -144.373C754.33 -156.991 749.214 -172.337 749.214 -188.109V-202.292ZM-31.8633 -177.23L-35.752 -170.505L-70.7979 -190.767L-66.9092 -197.492L-31.8633 -177.23ZM631.84 -251.096C630.367 -248.967 629.194 -246.64 628.357 -244.182L625.006 -234.338L627.939 -232.776C638.047 -227.396 642.349 -215.171 637.839 -204.646L630.698 -207.707C633.618 -214.521 630.833 -222.435 624.289 -225.918L622.469 -226.887L618.228 -214.425C614.836 -204.463 613.909 -193.826 615.526 -183.428L616.066 -179.953L688.43 -201.436V-232.393L631.84 -251.096ZM112.183 -514.145L88.4375 -454.041C80.8392 -434.808 65.4293 -419.707 46.0459 -412.5L41.2832 -410.729C35.5743 -408.607 30.1906 -405.694 25.291 -402.076L11.8096 -392.12C2.9656 -385.589 -4.08125 -376.925 -8.67383 -366.937L-12.8623 -357.826C-19.1458 -344.159 -20.5049 -328.739 -16.708 -314.184L-16.3584 -312.845C-16.3146 -312.677 -16.2817 -312.506 -16.2607 -312.334L-13.5234 -289.883C-13.4849 -289.567 -13.4849 -289.247 -13.5244 -288.931L-14.3447 -282.372C-15.5368 -272.836 -14.6032 -263.154 -11.6113 -254.021L-6.02148 -236.956L-13.4043 -234.538L-18.9941 -251.603C-22.3428 -261.825 -23.3879 -272.662 -22.0537 -283.336L-21.7793 -285.527H-43.6641V-293.297H-21.7666L-23.5957 -308.294L-54.9844 -311.282L-54.248 -319.017L-25.1543 -316.247C-28.1888 -331.331 -26.3776 -347.029 -19.9209 -361.072L-15.7324 -370.182C-10.5919 -381.362 -2.70474 -391.06 7.19434 -398.37L20.6758 -408.325C26.1599 -412.375 32.1852 -415.636 38.5752 -418.012L43.3379 -419.782C60.6554 -426.221 74.4234 -439.712 81.2119 -456.896L104.957 -517L112.183 -514.145ZM637.092 -257.542L692.697 -239.164L711.851 -241.602C717.229 -242.286 722.086 -245.16 725.274 -249.545C726.806 -251.651 727.904 -254.039 728.505 -256.572L730.304 -264.155L669.713 -275.315C664.915 -276.199 660.284 -277.8 655.974 -280.057L637.092 -257.542ZM49.377 -371.521C49.377 -380.943 57.0145 -388.58 66.4355 -388.58H74.3154C75.8486 -388.58 77.3785 -388.438 78.8857 -388.157L80.2871 -387.896C98.9993 -384.408 112.73 -368.319 113.235 -349.291L114.096 -316.896L106.329 -316.689L105.469 -349.085C105.061 -364.45 93.9733 -377.442 78.8633 -380.259L77.4619 -380.52C76.4243 -380.713 75.371 -380.811 74.3154 -380.811H66.4355C61.3053 -380.811 57.1466 -376.652 57.1465 -371.521C57.1465 -369.77 57.6412 -368.054 58.5742 -366.572L60.2803 -363.863C64.447 -357.245 65.1944 -349.032 62.29 -341.771C61.4406 -339.648 61.0372 -337.372 61.1055 -335.086L62.0732 -302.671L54.3076 -302.438L53.3398 -334.854C53.2398 -338.207 53.8307 -341.544 55.0762 -344.657C57.0569 -349.609 56.5478 -355.21 53.7061 -359.724L52 -362.433C50.2864 -365.154 49.377 -368.305 49.377 -371.521ZM529.726 -326.644L505.084 -322.811L503.89 -330.487L528.531 -334.321L529.726 -326.644ZM588.321 -513.382V-495.628L622.412 -480.205C629.659 -476.927 632.485 -468.104 628.492 -461.226C626.905 -458.491 627.865 -454.987 630.624 -453.443L645.394 -445.179C658.486 -437.853 663.865 -422.317 659.061 -408.842L675.741 -399.668L680.599 -406.888C689.281 -419.794 706.465 -423.777 719.938 -416.019L731.402 -409.65L733.444 -413.142C741.478 -426.876 756.905 -434.333 772.471 -432.33L780.157 -453.255L764.634 -463.604L768.943 -470.067L786.677 -458.246L824.635 -443.062L821.749 -435.849L787.127 -449.698L779.434 -428.755L782.315 -425.394C787.787 -419.01 794.443 -413.747 801.915 -409.894L823.854 -398.582L840.681 -401.131L841.845 -393.449L830.7 -391.761L839.283 -381.747L839.439 -381.553C839.788 -381.089 840.029 -380.552 840.144 -379.98L844.537 -358.008L861.884 -355.361C868.227 -354.394 874.627 -356.717 878.872 -361.528L884.698 -356.388C878.704 -349.595 869.668 -346.315 860.712 -347.681L840.677 -350.736C840.525 -350.759 840.375 -350.792 840.228 -350.833L804.216 -360.783C801.17 -361.625 797.961 -361.682 794.887 -360.95C790.401 -359.882 785.714 -360.004 781.289 -361.302L762.287 -366.876L756.821 -348.539L749.376 -350.758L754.986 -369.579C748.729 -373.514 746.34 -381.902 750.25 -388.701L752.923 -393.35C755.637 -398.069 760.297 -401.35 765.655 -402.312L772.235 -403.492C778.244 -404.571 784.435 -403.951 790.111 -401.703L823.165 -388.613L820.735 -391.448L798.354 -402.988C789.991 -407.301 782.54 -413.192 776.416 -420.337L772.929 -424.405C759.95 -426.688 746.85 -420.671 740.151 -409.219L736.19 -402.447C736.099 -402.29 735.996 -402.141 735.883 -401.998L729.133 -393.472C728.105 -392.173 728.102 -390.339 729.125 -389.037C731.4 -386.141 732.129 -382.321 731.079 -378.791L727.651 -367.26C726.537 -363.511 724.794 -359.978 722.498 -356.812L709.697 -339.154L703.407 -343.715L716.208 -361.371C717.988 -363.827 719.34 -366.566 720.204 -369.474L723.632 -381.005C723.963 -382.118 723.733 -383.324 723.016 -384.237C719.773 -388.365 719.783 -394.178 723.041 -398.294L726.951 -403.234L719.583 -407.329L705.579 -381.735L698.764 -385.465L712.665 -410.873C703.389 -414.275 692.738 -411.015 687.045 -402.552L680.387 -392.654L658.621 -344.223L651.534 -347.408L671.969 -392.876L655.528 -401.918L642.155 -381.856L637.938 -369.729L630.6 -372.281L633.812 -381.517L555.464 -416.746L558.649 -423.832L637.241 -388.492L649.273 -406.539C656.491 -417.365 652.955 -432.045 641.601 -438.398L626.83 -446.663C620.285 -450.326 618.007 -458.639 621.772 -465.126C623.456 -468.026 622.264 -471.744 619.21 -473.126L586.76 -487.807L585.384 -483.678L578.014 -486.135L580.552 -493.751V-513.382H588.321ZM218.465 -500.582L198.352 -443.977C195.569 -436.145 191.471 -428.847 186.218 -422.4C179.902 -414.651 172.55 -405.65 166.597 -398.405C163.621 -394.784 160.989 -391.596 159.01 -389.221C157.943 -387.941 157.007 -386.829 156.302 -386.008C156.621 -380.055 158.936 -374.366 162.895 -369.872L175.554 -355.502L169.725 -350.366L157.064 -364.736C151.899 -370.6 148.899 -378.038 148.531 -385.812L143.688 -390.77C132.724 -401.995 128.719 -418.217 133.068 -433.172L126.952 -438.064L131.805 -444.132L136.524 -440.356L159.401 -480.796L166.163 -476.971L140.993 -432.477C136.705 -419.804 139.885 -405.783 149.246 -396.198L152.193 -393.182C152.459 -393.499 152.743 -393.836 153.041 -394.194C155.003 -396.549 157.621 -399.721 160.594 -403.338C166.538 -410.571 173.882 -419.562 180.195 -427.309C184.884 -433.062 188.544 -439.579 191.031 -446.578L211.145 -503.183L218.465 -500.582ZM787.251 -394.479C782.919 -396.195 778.194 -396.668 773.608 -395.845L767.028 -394.664C763.927 -394.107 761.229 -392.209 759.658 -389.478L756.985 -384.828C754.904 -381.208 756.756 -376.595 760.763 -375.419L783.476 -368.757C786.603 -367.839 789.917 -367.754 793.088 -368.509C797.436 -369.544 801.977 -369.463 806.285 -368.272L836.216 -360.002L832.939 -376.386L787.251 -394.479ZM595.063 -374.659L592.429 -367.351L545.335 -384.326L547.97 -391.635L595.063 -374.659ZM246.105 -511.79C262.507 -511.79 278.237 -505.275 289.835 -493.677L284.342 -488.184C274.201 -498.324 260.447 -504.021 246.105 -504.021H241.09V-511.79H246.105ZM571.334 -511.434L569.69 -490.624L561.945 -491.236L563.589 -512.045L571.334 -511.434ZM430.064 -513.382V-490.93H422.295V-513.382H430.064ZM512.204 -513.382V-490.93H504.436V-513.382H512.204ZM496.324 106.563C496.324 127.035 480.718 143.86 460.754 145.796L460.133 213.029L486.588 213.69L490.752 141.874L498.508 142.324L495.635 191.88H527.136V72.8887L515.385 72.6045H496.324V106.563ZM756.983 -188.109C756.983 -174.019 761.553 -160.308 770.008 -149.035L774.865 -142.559C781.312 -133.962 785.779 -124.046 787.946 -113.521L788.072 -112.907C797.229 -113.008 804.698 -120.943 803.813 -130.426L798.728 -184.915L781.11 -192.603V-183.334C781.11 -176.39 782.22 -169.49 784.399 -162.896L784.715 -161.944L777.338 -159.507L777.023 -160.459C774.584 -167.839 773.341 -175.561 773.341 -183.334V-195.993L770.942 -197.039L756.983 -201.027V-188.109ZM658.962 -287.271C662.757 -285.2 666.86 -283.741 671.12 -282.956L732.1 -271.724L735.081 -284.285L742.641 -282.491L736.064 -254.779C735.226 -251.245 733.694 -247.913 731.558 -244.976C727.109 -238.859 720.333 -234.849 712.831 -233.895L696.199 -231.778V-203.742L707.334 -207.047C714.068 -209.046 721.055 -210.062 728.079 -210.062H753.099L753.369 -210.052C753.639 -210.033 753.906 -209.986 754.166 -209.912L769.408 -205.557L778.644 -245.133C779.157 -247.333 778.46 -249.641 776.813 -251.189C776.106 -251.855 775.256 -252.349 774.327 -252.633L762.913 -256.127L765.188 -263.556L776.602 -260.062C778.668 -259.429 780.562 -258.329 782.137 -256.849C785.801 -253.402 787.352 -248.266 786.209 -243.367L776.782 -202.968L802.972 -191.539C803.102 -191.56 803.256 -191.581 803.436 -191.611C804.227 -191.747 805.286 -191.949 806.563 -192.205C809.113 -192.717 812.44 -193.43 816.06 -194.227C822.243 -195.588 829.228 -197.185 834.541 -198.416L837.218 -215.666C838.524 -224.081 841.688 -232.1 846.48 -239.139C853.929 -250.078 864.932 -258.104 877.624 -261.854L883.423 -263.567L885.624 -256.116L879.826 -254.403C868.854 -251.162 859.341 -244.224 852.902 -234.767C848.759 -228.681 846.024 -221.749 844.896 -214.475L842.398 -198.389L859.033 -195.453C864.331 -194.518 869.509 -193 874.473 -190.926L904.092 -178.547L901.097 -171.379L871.478 -183.757C867.043 -185.61 862.417 -186.966 857.684 -187.802L838.083 -191.262C832.605 -189.986 824.671 -188.167 817.729 -186.639C814.094 -185.838 810.713 -185.114 808.094 -184.588C807.563 -184.481 807.059 -184.384 806.589 -184.294L811.549 -131.148C812.977 -115.851 799.759 -103.263 784.597 -105.366H775.428L771.458 -86.1699C770.936 -83.646 770.673 -81.0754 770.673 -78.498V-69.1641C770.673 -60.7574 775.356 -53.0507 782.816 -49.1768L779.236 -42.2812C769.202 -47.4916 762.904 -57.8572 762.904 -69.1641V-78.498C762.904 -81.6039 763.221 -84.7017 763.85 -87.7432L767.491 -105.353C762.222 -105.249 756.984 -104.508 751.891 -103.142L738.225 -99.4756C738.183 -99.4643 738.14 -99.4532 738.098 -99.4434L718.396 -94.8623L726.201 -63.6465L718.664 -61.7627L710.638 -93.8662H706.69C697.742 -93.8662 688.889 -92.0222 680.686 -88.4492L677.329 -86.9883L688.938 -60.7305C690.538 -57.1115 692.464 -53.6452 694.693 -50.376L730.734 2.48242C739.592 0.628052 748.721 0.439087 757.653 1.92773L758.092 2L749.361 -28.7881L756.836 -30.9082L766.591 3.49219L816.827 13.4346L817.04 13.4834L832.3 17.4072L835.033 4.83398C835.765 1.46588 834.12 -1.97028 831.037 -3.51172C823.816 -7.12262 820.64 -15.7212 823.78 -23.1592L828.587 -34.542C829.685 -37.1432 831.164 -39.5672 832.975 -41.7334L857.258 -70.7764C857.868 -71.5063 858.368 -72.3218 858.743 -73.1963C860.979 -78.4124 858.318 -84.4298 852.955 -86.2861L809.874 -101.199L812.415 -108.541L855.496 -93.6279C865.121 -90.2964 869.896 -79.4971 865.884 -70.1357C865.211 -68.5663 864.313 -67.1029 863.218 -65.793L838.936 -36.75C837.619 -35.1747 836.543 -33.4121 835.744 -31.5205L830.938 -20.1367C829.391 -16.4734 830.955 -12.2383 834.512 -10.46C840.771 -7.33017 844.112 -0.35437 842.625 6.48438L840.227 17.5137L850.693 15.9746L860.485 -24.7334L868.039 -22.916L857.635 20.3447C857.628 20.3725 857.621 20.4001 857.613 20.4277L842.28 78.4736L834.769 76.4902L848.598 24.1357L835.804 26.0176C835.293 26.0927 834.772 26.0651 834.271 25.9365L818.842 21.9688L812.162 47.2607L804.65 45.2764L811.261 20.2529L766.954 11.4834L763.536 46.6445L755.804 45.8926L759.285 10.0762L756.377 9.5918C748.655 8.30481 740.768 8.41986 733.096 9.92969L735.071 40.542L727.317 41.043L725.195 8.15137L688.274 -46C685.78 -49.6592 683.623 -53.5383 681.832 -57.5889L664.548 -96.6855C662.562 -101.177 660.075 -105.429 657.134 -109.361L611.882 -169.855L578.37 -150.194L633.044 -100.629L627.826 -94.873L571.987 -145.493L548.466 -121.713L552.575 -117.121C558.863 -110.093 566.603 -104.515 575.259 -100.772L601.859 -89.2695L598.775 -82.1387L572.175 -93.6416C562.487 -97.8311 553.824 -104.074 546.785 -111.94L542.992 -116.179L509.922 -82.7441L517.928 -74.4795L552.616 -51.7148C552.629 -51.7066 552.642 -51.6979 552.654 -51.6895L582.776 -31.4092L597.489 -54.1367L591.929 -57.0811L595.563 -63.9473L604.873 -59.0186L605.061 -58.9131C605.245 -58.802 605.419 -58.6754 605.583 -58.5352L611.066 -53.835C611.966 -53.0641 613.358 -53.4151 613.785 -54.5205L616.64 -61.9131L623.888 -59.1152L622.166 -54.6582L632.556 -47.8887L628.314 -41.3789L618.317 -47.8945C614.924 -45.029 609.713 -44.7626 606.01 -47.9365L603.901 -49.7441L589.223 -27.0693L607.731 -14.6084L627.912 -4.83691L628.792 -8.0752C630.094 -12.8715 632.565 -17.27 635.983 -20.8779C648.304 -33.8829 669.191 -33.2992 680.766 -19.626L711.707 16.9258C711.762 16.9909 711.815 17.0583 711.866 17.127L721.176 29.7217L714.928 34.3398L705.702 21.8574L674.836 -14.6064C666.252 -24.747 650.761 -25.1802 641.623 -15.5352C639.088 -12.8593 637.256 -9.59628 636.29 -6.03906L635.028 -1.39258L666.105 13.6533C673.689 17.3248 679.439 23.9414 682.018 31.9629C683.078 35.2618 683.575 38.7157 683.486 42.1797L682.58 77.6875C681.572 117.208 649.245 148.722 609.711 148.722H607.918L607.286 176.651L705.525 179.288L709.788 40.6729L717.554 40.9121L713.292 179.497L723.405 179.769L742.744 143.028C747.578 133.844 754.536 125.947 763.038 119.995L794.679 97.8467L799.135 104.211L767.493 126.36C760.87 130.997 755.311 136.973 751.169 143.889L806.351 188.815L866.45 229.792L862.073 236.211L801.837 195.141C801.746 195.079 801.658 195.013 801.573 194.943L747.408 150.846L729.166 185.507C718.452 207.553 696.091 221.553 671.573 221.553H629.054C615.071 221.553 603.315 211.943 600.063 198.943C595.651 201.317 590.565 202.318 585.478 201.707L568.366 199.653L533.802 200.443L518.012 245.778L510.675 243.223L525.853 199.648H495.185L494.134 217.775V257.096H486.364V221.457L460.061 220.799L459.635 266.988L451.865 266.917L452.293 220.604L384.242 218.903L381.856 243.237L374.124 242.479L376.844 214.74V181.578H361.93C351.699 181.578 341.629 179.03 332.629 174.165L327.523 171.406C325.662 170.4 323.958 169.129 322.462 167.633C318.363 163.534 316.06 157.975 316.06 152.178V132.242H323.829V152.178C323.829 155.914 325.313 159.498 327.955 162.14C328.919 163.104 330.018 163.923 331.218 164.571L336.323 167.331C344.189 171.583 352.989 173.809 361.93 173.809H452.726L452.982 145.983H354.443V138.215H453.054L453.332 108.199H356.634V100.43H453.403L453.66 72.6045H356.634V64.8359H453.732L454.02 33.7246H390.526V29.8691L385.606 29.7324L389.587 -113.218L358.641 -114.68L359.008 -122.44L389.803 -120.985L392.066 -202.292H358.824V-210.062H426.18C435.934 -210.062 445.094 -214.75 450.798 -222.663L501.335 -292.778L507.638 -288.236L477.04 -245.785L497.68 -230.724L521.124 -261.474C532.27 -276.094 548.529 -285.963 566.643 -289.103L577.114 -290.917C579.943 -291.407 582.808 -291.654 585.679 -291.654C603.636 -291.654 619.644 -302.972 625.632 -319.902L629.926 -332.045L615.243 -352.297L621.533 -356.857L636.539 -336.159C649.624 -333.008 658.962 -321.277 658.962 -307.681V-287.271Z" fill="#6F7480"/>
</g>
</svg>
