<?xml version="1.0" encoding="UTF-8" standalone="no"?><!DOCTYPE svg PUBLIC "-//W3C//DTD SVG 1.1//EN" "http://www.w3.org/Graphics/SVG/1.1/DTD/svg11.dtd"><svg width="14px" height="14px" version="1.1" xmlns="http://www.w3.org/2000/svg" xmlns:xlink="http://www.w3.org/1999/xlink" xml:space="preserve" xmlns:serif="http://www.serif.com/" style="fill-rule:evenodd;clip-rule:evenodd;stroke-linejoin:round;stroke-miterlimit:2;"><path d="M13.9,8.3L9.9,8.1L13,10.6L12.5,11.3L9.1,9.3L10.7,13L9.8,13.4L7.7,10L7.5,14L6.5,14L6.3,10L4.2,13.4L3.3,13L4.9,9.3L1.5,11.3L1,10.6L4.1,8.1L0.1,8.3L0,7.3L3.9,6.6L0.3,4.9L0.6,4L4.4,5.2L2,2L2.7,1.4L5.5,4.2L4.9,0.2L5.8,0L7,3.8L8.2,0L9.1,0.2L8.5,4.2L11.3,1.4L12,2L9.6,5.2L13.4,4L13.7,4.9L10.1,6.6L14,7.3L13.9,8.3Z" style="fill:rgba(192, 192, 0, 1);fill-rule:nonzero;"/></svg>