<?xml version="1.0" encoding="UTF-8" standalone="no"?>
<!DOCTYPE svg PUBLIC "-//W3C//DTD SVG 1.1//EN" "http://www.w3.org/Graphics/SVG/1.1/DTD/svg11.dtd">
<svg width="100%" height="100%" viewBox="0 0 24 24" version="1.1" xmlns="http://www.w3.org/2000/svg" xmlns:xlink="http://www.w3.org/1999/xlink" xml:space="preserve" xmlns:serif="http://www.serif.com/" style="fill-rule:evenodd;clip-rule:evenodd;stroke-linecap:round;">
    <path d="M8,17L8,14" style="fill:none;fill-rule:nonzero;stroke:rgb(46,49,56);stroke-width:2px;"/>
    <path d="M2,10.889C2,6.699 2,4.604 3.172,3.302C4.343,2 6.229,2 10,2L14,2C17.771,2 19.657,2 20.828,3.302C22,4.604 22,6.699 22,10.889L22,13.111C22,17.301 22,19.396 20.828,20.698C19.657,22 17.771,22 14,22L10,22C6.229,22 4.343,22 3.172,20.698C2,19.396 2,17.301 2,13.111L2,10.889Z" style="fill:none;fill-rule:nonzero;stroke:rgb(46,49,56);stroke-width:2px;stroke-linecap:butt;"/>
</svg>
