<svg width="24" height="24" viewBox="0 0 24 24" fill="none" xmlns="http://www.w3.org/2000/svg">
<path d="M7.6646 8.31L7.0952 11.5901L9.4729 9.2585L10.0635 9.783L8.0366 12.4228L11.2234 11.4637L11.5033 12.2019L8.4808 13.5981L11.7479 14.2288L11.6533 15.013L8.3307 14.8453L10.9292 16.923L10.4804 17.5738L7.615 15.8801L8.9519 18.9274L8.2516 19.2947L6.5023 16.4624L6.2696 19.7838H5.4794L5.2468 16.4624L3.4974 19.2947L2.7971 18.9274L4.1329 15.8801L1.2674 17.5738L0.8186 16.923L3.4195 14.8453L0.0946 15.013L0 14.2288L3.2671 13.5981L0.2445 12.2019L0.5245 11.4637L3.7113 12.4228L1.6844 9.783L2.275 9.2585L4.6526 11.5901L4.0857 8.31L4.8522 8.1211L5.8728 11.289H5.8751L6.8957 8.1211L7.6646 8.31ZM16.2539 14.7898C16.2539 17.0352 17.2165 17.6659 18.6622 17.6659C20.2934 17.6659 21.1935 16.2025 21.1935 13.9843C21.1935 12.0188 20.3997 10.618 18.7037 10.618C18.4107 10.618 18.1473 10.6499 17.9099 10.7102V8.7341C18.3352 8.59 18.8453 8.5038 19.4584 8.5038C22.299 8.5038 23.8475 10.7609 23.8475 13.9205C23.8475 17.08 22.2388 19.7565 19.1619 19.7565C17.5307 19.7565 16.7594 19.2132 16.235 18.3546C16.235 18.7738 16.1748 19.2357 16.1287 19.5062H13.6411C13.6636 18.3356 13.6637 17.1438 13.6637 15.9521V4.2162H16.2539V14.7898Z" fill="currentColor"/>
</svg>
