<svg width="25" height="24" viewBox="0 0 25 24" fill="none" xmlns="http://www.w3.org/2000/svg">
<path d="M24.0441 14.1823L17.1878 13.8369L22.5496 18.1114L21.6244 19.4512L15.7132 15.966L18.4731 22.2362L17.0281 22.9926L13.4185 17.1663L12.9377 24H11.3061L10.8252 17.1663L7.21567 22.9926L5.77063 22.2362L8.52706 15.966L2.61583 19.4512L1.69066 18.1114L7.05598 13.8369L0.196145 14.1823L6.77258e-07 12.5682L6.7418 11.2709L0.506851 8.3984L1.08574 6.87866L7.6609 8.85103L3.47939 3.41942L4.69878 2.3402L9.60325 7.13656L8.43246 0.387725L10.0146 0L12.1201 6.51776L14.2257 0L15.8113 0.387725L14.6379 7.13656L19.5424 2.3402L20.7618 3.41942L16.5803 8.85103L23.1554 6.87866L23.7343 8.3984L17.4993 11.2709L24.2411 12.5682L24.0441 14.1823Z" fill="#2E3138"/>
</svg>
