<svg width="24" height="24" viewBox="0 0 24 24" fill="none" xmlns="http://www.w3.org/2000/svg">
<path d="M4.04669 17.8177L4.92905 18.6814C8.82753 22.4976 15.1482 22.4976 19.0467 18.6814C22.9452 14.8653 22.9927 8.6782 19.0844 4.86209C15.1761 1.04597 8.83955 1.04597 4.93128 4.86208C2.65848 7.08128 1.7074 10.1023 2.07802 12.9926M4.04669 17.8177L8.34255 17.8177M4.04669 17.8177L4.04669 22" stroke="#2E3138" stroke-width="2" stroke-linecap="round" stroke-linejoin="round"/>
<path d="M12 16.1667C13.3807 16.1667 14.5 15.2339 14.5 14.0833C14.5 12.9327 13.3807 12 12 12C10.6193 12 9.5 11.0673 9.5 9.91667C9.5 8.76607 10.6193 7.83333 12 7.83333M12 16.1667C10.6193 16.1667 9.5 15.2339 9.5 14.0833M12 16.1667V17M12 7V7.83333M12 7.83333C13.3807 7.83333 14.5 8.76607 14.5 9.91667" stroke="#2E3138" stroke-width="2" stroke-linecap="round"/>
</svg>
